<?xml version='1.0' encoding='utf-8'?>
<svg xmlns="http://www.w3.org/2000/svg" viewBox="0 0 96.0000 96.0000"><g transform="translate(-61.3124, 13.5700)"><path d="M131.4,65.53l-2.44-1.38c1.42-2.95,3.63-4.43,1.14-8.45-.99-1.6-3.1-2.74-5.03-2.9.08-4.99-.36-9.35-1.26-14.09l.04-5.84c.01-1.94-.44-3.4-.27-5.08,4.1-2.18,5.6-6.16,5.52-10.56-.04-2.17.06-4.82-.43-6.65-.68-2.54-2.59-3.84-4.69-3.61-4.37.47-3.73,5.46-4.74,5.57l-2.06.24c-.73.08-2.68-.09-2.91-.76l-.83-2.49c-.84-2.52-3.88-2.98-6.31-2.38-2.04.5-3.12,2.5-3.71,5.04-1.18.77-4.13.85-5.16-.14-.15-2.98-2.23-5.14-4.79-5.1-2.9.05-4.44,2.48-4.38,5.28l.17,8.51c.06,3.1,2.77,5.29,4.82,6.97.02,3.01.16,6.19-.04,9.03l-.56,8.05-.6,8.14c-2.86-.12-5.63,1.87-5.79,4.73-.14,2.59.39,4.53,2.06,6.42-1.07.52-2.11,1.6-2.05,2.42.05.68,1.4,1.88,2.12,1.87l9.95-.21c2.05-.04,3.63-.12,5.63,0,5.92.36,11.85.23,17.77-.04,1.31-.06,2.58-.34,3.85-.04,1.19.28,2.93.31,3.96-.05.62-.22,1.56-2.19,1.01-2.51Z" fill="#2C2C30" />
  </g></svg>