<?xml version='1.0' encoding='utf-8'?>
<svg xmlns="http://www.w3.org/2000/svg" viewBox="0 0 96.0000 96.0000"><g transform="translate(-409.0211, 13.5700)"><path d="M487.4,35.77l-.11-4.97c-.11-5.03-3.35-9.35-7.53-11.58-8.55-4.58-17.4-.42-17.51-.78l-.51-1.62-.88-3.31c2.43.49,3.23.68,5.4.72V5.19s-5.33.83-5.33.83l1.19-5.45-9.23-.06c-.95,2.41,1.15,5.73.39,5.56l-1.36-.3c-1.16-.26-2.28-.43-3.61-.42l-.08,8.91,4.12-.6c.17-.03.96-.21.96-.18,0,.05.11.39.22.82l-1.69,4.38c-2.53-1.29-4.58-1.45-7.13-1.58-5.56-.29-10.54,1.38-14.2,5.32-4.33,4.66-4.88,12.14-2.37,18.33,2.44,6.02,6.99,9.82,13.19,11.7-3.6,1.08-5.67,2.51-6.15,5.15-.49,2.76.67,5,2.66,6.95-1.01.13-1.97.25-2.46.48-.48.24-.43,1.87,0,2.18l1.62,1.14h40.86c.76,0,1.74-1.87,1.54-2.48-.25-.75-.94-1.24-2.5-1.43l1.51-2.57c1.09-1.86,1.09-3.83.08-6.03-.67-1.46-2.61-2.37-4.95-3.31,7.24-3.04,13.05-8.86,13.83-16.76Z" fill="#2C2C30" />
  </g></svg>