<?xml version='1.0' encoding='utf-8'?>
<svg xmlns="http://www.w3.org/2000/svg" viewBox="0 0 96.0000 96.0000"><g transform="translate(25.7150, 13.5700)"><path d="M44.46,65.53c-.2-.52-1.26-.94-2.19-1.22-1.75-.52,4.35-3.09,1.38-8.31-1.65-2.88-4.49-2.96-7.04-3.09-3.93-2.25-5.44-6.67-6.72-10.66-.82-2.56-1.14-4.95.64-7.37.55-.75,2.42-1.11,3.82-1.18,1.22-.07,1.91-2.48,1.47-3.68-.32-.87-2.06-1.34-3.41-1.63l.89-5.57c.14-.87-.56-2.93-.57-3.86-2.33-6.63-9.17-9.44-15.29-6.83-6.13,2.61-8.76,9.77-5.49,16.15-1.8.42-3.37.91-3.7,1.85-.36,1,.06,3.31,1.07,3.45,1.39.19,3.15.54,4.4,1.35,1.31,6.42-.42,14.17-6.39,17.82-1.77,1.08-4.65-.18-6.12,2.52-.85,1.56-1.94,4.5-.4,6.44l1.96,2.47c-1.36.48-2.22.81-2.49,1.37-.23.47.2,1.72.55,2.22h42.92c.43-.49.94-1.71.74-2.23Z" fill="#2C2C30" stroke="#FFFFFF" stroke-width="1.8" stroke-linejoin="round" stroke-linecap="round" />
  </g></svg>