<?xml version='1.0' encoding='utf-8'?>
<svg xmlns="http://www.w3.org/2000/svg" viewBox="0 0 96.0000 96.0000"><g transform="translate(-235.0717, 13.5700)"><path d="M303.27,64.08l2.23-4.85c-.08-2.47-2.2-5.8-4.73-6.01l-5.07-.43c2.84-3.62,5.77-6.8,5.9-11.21l.25-8.24-1.4-3.17c-1.61-3.64-3.65-6.45-6.76-9.58-1.88,1.79-2.79,3.5-3.63,5.65l-1.8,4.64c-.25.65-1.61,1.69-2.3,1.71-.6.02-1.79-.9-2.08-1.46-1.67-3.25,1.68-9.79,4.64-13.62.97-1.26-.35-3.14-1.78-3.87,2.55-3.16,3-5.33.33-8.72-1.55-1.96-6.76-1.66-8.31.19-1.66,1.98-1.64,5.91.34,8.3l-8.98,9.78c-2.49,2.71-3.95,5.89-5.3,9.24-4.15,10.25,6.37,20.97,5.03,20.77l-1.17-.18c-3.72-.57-7.66,1.65-7.94,5.85-.11,1.66,1.47,3.96,2.42,5.32-1.07.3-2.37,1-2.51,1.8-.11.65,1.17,2.06,1.88,2.09l4.71.2,35.92.11c1.12,0,2.49-1.36,2.31-2.32-.13-.69-1.14-1.39-2.2-1.96Z" fill="#2C2C30" stroke="#FFFFFF" stroke-width="1.8" stroke-linejoin="round" stroke-linecap="round" />
  </g></svg>