<?xml version='1.0' encoding='utf-8'?>
<svg xmlns="http://www.w3.org/2000/svg" viewBox="0 0 96.0000 96.0000"><g transform="translate(-322.3655, 13.5700)"><g>
    <path d="M395.23,31.93c-1.01-1.41-3.19-.68-4.25-.08l-4.9,2.79c-8.42,4.78-9.6-3.28-16.29-5.23l-6.76,5.01c-2.82,2.09-5.57,1.89-8.38.41l-4.94-2.61c-1.51-.8-3.44-1.95-4.93-.23l.02,5.21c0,2.6,2.7,4.41,4.18,6.25l3.83,4.78c.71.89,1.14,3.48,1.13,4.46-2.37.59-4.09,1.62-5.18,3.09-1.26,1.7-1.19,4.96.07,6.21l1.21,1.2c.24.24-.15,1.24-.48,1.27-1.09,0-2.22,1.5-1.36,3.03.61,1.08,1.93.4,3.26.39l37.82-.03c1.18,0,2.13.19,2.6-.19.47-.38.82-2.22.28-2.49l-2.4-1.15c.73-1.05,2.41-2.98,2.57-4.2.51-3.8-2.47-6.67-5.81-6.98-.76-5.86,5.95-8.64,9.06-15.43.6-1.3.46-4.39-.33-5.49Z" fill="#2C2C30" />
    <path d="M359.19,29.91l5.42-4.21c3.56-2.76,7.83-2.96,11.31.13l2.81,2.5c.63.56,1.61,1.53,2.29,1.49,1.55-.07,5.33-1.44,5.88-2.74,1.94-4.62-3.94-14.55-12.33-16.34-1.21-.26-3.59-.7-4.73-.55l-4.53.6c-4.3.57-8.37,4.02-10.19,7.83l-1.83,3.85c-.51,1.07-.15,3.77.17,4.98,1.43,1.22,3.87,2.48,5.73,2.45Z" fill="#2C2C30" />
  </g>
  </g></svg>