<?xml version="1.0" encoding="UTF-8"?>
<svg id="Capa_1" xmlns="http://www.w3.org/2000/svg" version="1.1" viewBox="293.11 60.15 248.96 248.96">
  <!-- Generator: Adobe Illustrator 30.5.1, SVG Export Plug-In . SVG Version: 2.1.4 Build 3)  -->
  <defs>
    <style>
      .st0 {
        fill: #e9ebde;
      }

      .st1 {
        fill: #8592af;
      }

      .st2 {
        fill: #17234f;
      }

      .st3 {
        fill: #fff;
      }

      .st4 {
        fill: #0c0c0c;
      }

      .st5 {
        fill: #8d98b0;
      }

      .st6 {
        fill: #222221;
      }
    </style>
  </defs>
  <g>
  </g>
  <path class="st4" d="M1879.39,496.92v-21.19c0-22.54-16.52-41.82-39.95-49.81,9.12-5.4,15.01-13.78,15.01-23.22,0-13.27-11.6-24.49-27.55-28.21,5.1-3.61,8.43-9.55,8.43-16.27,0-11.02-8.93-19.95-19.95-19.95s-19.95,8.93-19.95,19.95c0,6.72,3.34,12.66,8.43,16.27-15.96,3.71-27.55,14.94-27.55,28.21,0,9.44,5.88,17.82,15.01,23.22-23.42,7.99-39.95,27.27-39.95,49.81v21.19h128.03Z"/>
  <path class="st4" d="M1646.42,496.92v-21.19c0-22.54-16.52-41.82-39.95-49.81,9.12-5.4,15.01-13.78,15.01-23.22,0-13.27-11.6-24.49-27.55-28.21,5.1-3.61,8.43-9.55,8.43-16.27,0-11.02-8.93-19.95-19.95-19.95s-19.95,8.93-19.95,19.95c0,6.72,3.34,12.66,8.43,16.27-15.96,3.71-27.55,14.94-27.55,28.21,0,9.44,5.88,17.82,15.01,23.22-23.42,7.99-39.95,27.27-39.95,49.81v21.19h128.03Z"/>
  <path class="st4" d="M1413.46,496.92v-21.19c0-22.54-16.52-41.82-39.95-49.81,9.12-5.4,15.01-13.78,15.01-23.22,0-13.27-11.6-24.49-27.55-28.21,5.1-3.61,8.43-9.55,8.43-16.27,0-11.02-8.93-19.95-19.95-19.95s-19.95,8.93-19.95,19.95c0,6.72,3.34,12.66,8.43,16.27-15.96,3.71-27.55,14.94-27.55,28.21,0,9.44,5.88,17.82,15.01,23.22-23.42,7.99-39.95,27.27-39.95,49.81v21.19h128.03Z"/>
  <path class="st4" d="M1180.5,496.92v-21.19c0-22.54-16.52-41.82-39.95-49.81,9.12-5.4,15.01-13.78,15.01-23.22,0-13.27-11.6-24.49-27.55-28.21,5.1-3.61,8.43-9.55,8.43-16.27,0-11.02-8.93-19.95-19.95-19.95s-19.95,8.93-19.95,19.95c0,6.72,3.34,12.66,8.43,16.27-15.96,3.71-27.55,14.94-27.55,28.21,0,9.44,5.88,17.82,15.01,23.22-23.42,7.99-39.95,27.27-39.95,49.81v21.19h128.03Z"/>
  <path class="st4" d="M947.53,496.92v-21.19c0-22.54-16.52-41.82-39.95-49.81,9.12-5.4,15.01-13.78,15.01-23.22,0-13.27-11.6-24.49-27.55-28.21,5.1-3.61,8.43-9.55,8.43-16.27,0-11.02-8.93-19.95-19.95-19.95s-19.95,8.93-19.95,19.95c0,6.72,3.34,12.66,8.43,16.27-15.96,3.71-27.55,14.94-27.55,28.21,0,9.44,5.88,17.82,15.01,23.22-23.42,7.99-39.95,27.27-39.95,49.81v21.19h128.03Z"/>
  <path class="st4" d="M714.57,496.92v-21.19c0-22.54-16.52-41.82-39.95-49.81,9.12-5.4,15.01-13.78,15.01-23.22,0-13.27-11.6-24.49-27.55-28.21,5.1-3.61,8.43-9.55,8.43-16.27,0-11.02-8.93-19.95-19.95-19.95s-19.95,8.93-19.95,19.95c0,6.72,3.34,12.66,8.43,16.27-15.96,3.71-27.55,14.94-27.55,28.21,0,9.44,5.88,17.82,15.01,23.22-23.42,7.99-39.95,27.27-39.95,49.81v21.19h128.03Z"/>
  <path class="st4" d="M481.61,496.92v-21.19c0-22.54-16.52-41.82-39.95-49.81,9.12-5.4,15.01-13.78,15.01-23.22,0-13.27-11.6-24.49-27.55-28.21,5.1-3.61,8.43-9.55,8.43-16.27,0-11.02-8.93-19.95-19.95-19.95s-19.95,8.93-19.95,19.95c0,6.72,3.34,12.66,8.43,16.27-15.96,3.71-27.55,14.94-27.55,28.21,0,9.44,5.88,17.82,15.01,23.22-23.42,7.99-39.95,27.27-39.95,49.81v21.19h128.03Z"/>
  <path class="st4" d="M248.64,496.92v-21.19c0-22.54-16.52-41.82-39.95-49.81,9.12-5.4,15.01-13.78,15.01-23.22,0-13.27-11.6-24.49-27.55-28.21,5.1-3.61,8.43-9.55,8.43-16.27,0-11.02-8.93-19.95-19.95-19.95s-19.95,8.93-19.95,19.95c0,6.72,3.34,12.66,8.43,16.27-15.96,3.71-27.55,14.94-27.55,28.21,0,9.44,5.88,17.82,15.01,23.22-23.42,7.99-39.95,27.27-39.95,49.81v21.19h128.03Z"/>
  <g>
    <path class="st3" d="M1879.39,1661.73v-21.19c0-22.54-16.52-41.82-39.95-49.81,9.12-5.4,15.01-13.78,15.01-23.22,0-13.27-11.6-24.49-27.55-28.21,5.1-3.61,8.43-9.55,8.43-16.27,0-11.02-8.93-19.95-19.95-19.95s-19.95,8.93-19.95,19.95c0,6.72,3.34,12.66,8.43,16.27-15.96,3.71-27.55,14.94-27.55,28.21,0,9.44,5.88,17.82,15.01,23.22-23.42,7.99-39.95,27.27-39.95,49.81v21.19h128.03Z"/>
    <path class="st6" d="M1880.72,1663.07h-130.7v-22.52c0-21.77,14.93-41.21,38.28-50.14-8.51-5.85-13.34-14.07-13.34-22.89,0-12.97,10.34-24.3,26-28.83-4.35-4.01-6.88-9.68-6.88-15.65,0-11.74,9.55-21.29,21.29-21.29s21.29,9.55,21.29,21.29c0,5.96-2.53,11.64-6.88,15.65,15.66,4.53,26,15.86,26,28.83,0,8.82-4.83,17.04-13.34,22.89,23.35,8.94,38.28,28.37,38.28,50.14v22.52ZM1752.69,1660.4h125.36v-19.85c0-21.4-15.33-40.46-39.05-48.55l-2.74-.93,2.49-1.48c9.12-5.4,14.35-13.45,14.35-22.07,0-12.4-10.66-23.21-26.52-26.91l-2.89-.67,2.42-1.71c4.93-3.5,7.87-9.17,7.87-15.18,0-10.27-8.35-18.62-18.62-18.62s-18.62,8.35-18.62,18.62c0,6.01,2.94,11.69,7.87,15.18l2.42,1.71-2.89.67c-15.86,3.69-26.52,14.51-26.52,26.91,0,8.63,5.23,16.67,14.35,22.07l2.49,1.48-2.74.93c-23.72,8.09-39.05,27.15-39.05,48.55v19.85Z"/>
  </g>
  <g>
    <path class="st3" d="M1646.42,1661.73v-21.19c0-22.54-16.52-41.82-39.95-49.81,9.12-5.4,15.01-13.78,15.01-23.22,0-13.27-11.6-24.49-27.55-28.21,5.1-3.61,8.43-9.55,8.43-16.27,0-11.02-8.93-19.95-19.95-19.95s-19.95,8.93-19.95,19.95c0,6.72,3.34,12.66,8.43,16.27-15.96,3.71-27.55,14.94-27.55,28.21,0,9.44,5.88,17.82,15.01,23.22-23.42,7.99-39.95,27.27-39.95,49.81v21.19h128.03Z"/>
    <path class="st6" d="M1647.76,1663.07h-130.7v-22.52c0-21.77,14.93-41.21,38.28-50.14-8.51-5.85-13.34-14.07-13.34-22.89,0-12.97,10.34-24.3,26-28.83-4.35-4.01-6.88-9.68-6.88-15.65,0-11.74,9.55-21.29,21.29-21.29s21.29,9.55,21.29,21.29c0,5.96-2.53,11.64-6.88,15.65,15.66,4.53,26,15.86,26,28.83,0,8.82-4.83,17.04-13.34,22.89,23.35,8.94,38.28,28.37,38.28,50.14v22.52ZM1519.73,1660.4h125.36v-19.85c0-21.4-15.33-40.46-39.05-48.55l-2.74-.93,2.49-1.48c9.12-5.4,14.35-13.45,14.35-22.07,0-12.4-10.66-23.21-26.52-26.91l-2.89-.67,2.42-1.71c4.93-3.5,7.87-9.17,7.87-15.18,0-10.27-8.35-18.62-18.62-18.62s-18.62,8.35-18.62,18.62c0,6.01,2.94,11.69,7.87,15.18l2.42,1.71-2.89.67c-15.86,3.69-26.52,14.51-26.52,26.91,0,8.62,5.23,16.67,14.35,22.07l2.49,1.48-2.74.93c-23.72,8.09-39.05,27.15-39.05,48.55v19.85Z"/>
  </g>
  <g>
    <path class="st3" d="M1413.46,1661.73v-21.19c0-22.54-16.52-41.82-39.95-49.81,9.12-5.4,15.01-13.78,15.01-23.22,0-13.27-11.6-24.49-27.55-28.21,5.1-3.61,8.43-9.55,8.43-16.27,0-11.02-8.93-19.95-19.95-19.95s-19.95,8.93-19.95,19.95c0,6.72,3.34,12.66,8.43,16.27-15.96,3.71-27.55,14.94-27.55,28.21,0,9.44,5.88,17.82,15.01,23.22-23.42,7.99-39.95,27.27-39.95,49.81v21.19h128.03Z"/>
    <path class="st6" d="M1414.79,1663.07h-130.7v-22.52c0-21.77,14.93-41.21,38.28-50.14-8.51-5.85-13.34-14.07-13.34-22.89,0-12.97,10.34-24.3,26-28.83-4.35-4.01-6.88-9.68-6.88-15.65,0-11.74,9.55-21.29,21.29-21.29s21.29,9.55,21.29,21.29c0,5.96-2.53,11.64-6.88,15.65,15.66,4.53,26,15.86,26,28.83,0,8.82-4.83,17.04-13.34,22.89,23.35,8.94,38.28,28.37,38.28,50.14v22.52ZM1286.76,1660.4h125.36v-19.85c0-21.4-15.33-40.46-39.05-48.55l-2.74-.93,2.49-1.48c9.12-5.4,14.35-13.45,14.35-22.07,0-12.4-10.66-23.21-26.52-26.91l-2.89-.67,2.42-1.71c4.93-3.5,7.87-9.17,7.87-15.18,0-10.27-8.35-18.62-18.62-18.62s-18.62,8.35-18.62,18.62c0,6.01,2.94,11.69,7.87,15.18l2.42,1.71-2.89.67c-15.86,3.69-26.52,14.51-26.52,26.91,0,8.62,5.23,16.67,14.35,22.07l2.49,1.48-2.74.93c-23.72,8.09-39.05,27.15-39.05,48.55v19.85Z"/>
  </g>
  <g>
    <path class="st3" d="M1180.5,1661.73v-21.19c0-22.54-16.52-41.82-39.95-49.81,9.12-5.4,15.01-13.78,15.01-23.22,0-13.27-11.6-24.49-27.55-28.21,5.1-3.61,8.43-9.55,8.43-16.27,0-11.02-8.93-19.95-19.95-19.95s-19.95,8.93-19.95,19.95c0,6.72,3.34,12.66,8.43,16.27-15.96,3.71-27.55,14.94-27.55,28.21,0,9.44,5.88,17.82,15.01,23.22-23.42,7.99-39.95,27.27-39.95,49.81v21.19h128.03Z"/>
    <path class="st6" d="M1181.83,1663.07h-130.7v-22.52c0-21.77,14.93-41.21,38.28-50.14-8.51-5.85-13.34-14.07-13.34-22.89,0-12.97,10.34-24.3,26-28.83-4.35-4.01-6.88-9.68-6.88-15.65,0-11.74,9.55-21.29,21.29-21.29s21.29,9.55,21.29,21.29c0,5.96-2.53,11.64-6.88,15.65,15.66,4.53,26,15.86,26,28.83,0,8.82-4.83,17.04-13.34,22.89,23.35,8.94,38.28,28.37,38.28,50.14v22.52ZM1053.8,1660.4h125.36v-19.85c0-21.4-15.33-40.46-39.05-48.55l-2.74-.93,2.49-1.48c9.12-5.4,14.35-13.45,14.35-22.07,0-12.4-10.66-23.21-26.52-26.91l-2.89-.67,2.42-1.71c4.93-3.49,7.87-9.17,7.87-15.18,0-10.27-8.35-18.62-18.62-18.62s-18.62,8.35-18.62,18.62c0,6.01,2.94,11.69,7.87,15.18l2.42,1.71-2.89.67c-15.86,3.69-26.52,14.51-26.52,26.91,0,8.62,5.23,16.67,14.35,22.07l2.49,1.48-2.74.93c-23.72,8.09-39.05,27.15-39.05,48.55v19.85Z"/>
  </g>
  <g>
    <path class="st3" d="M947.53,1661.73v-21.19c0-22.54-16.52-41.82-39.95-49.81,9.12-5.4,15.01-13.78,15.01-23.22,0-13.27-11.6-24.49-27.55-28.21,5.1-3.61,8.43-9.55,8.43-16.27,0-11.02-8.93-19.95-19.95-19.95s-19.95,8.93-19.95,19.95c0,6.72,3.34,12.66,8.43,16.27-15.96,3.71-27.55,14.94-27.55,28.21,0,9.44,5.88,17.82,15.01,23.22-23.42,7.99-39.95,27.27-39.95,49.81v21.19h128.03Z"/>
    <path class="st6" d="M948.87,1663.07h-130.7v-22.52c0-21.77,14.93-41.21,38.28-50.14-8.51-5.85-13.34-14.07-13.34-22.89,0-12.97,10.34-24.3,26-28.83-4.35-4.01-6.88-9.68-6.88-15.65,0-11.74,9.55-21.29,21.29-21.29s21.29,9.55,21.29,21.29c0,5.96-2.53,11.64-6.88,15.65,15.66,4.53,26,15.86,26,28.83,0,8.82-4.83,17.04-13.34,22.89,23.35,8.94,38.28,28.37,38.28,50.14v22.52ZM820.84,1660.4h125.36v-19.85c0-21.4-15.33-40.46-39.04-48.55l-2.74-.93,2.49-1.48c9.12-5.4,14.35-13.45,14.35-22.07,0-12.4-10.66-23.21-26.52-26.91l-2.89-.67,2.42-1.71c4.93-3.5,7.87-9.17,7.87-15.18,0-10.27-8.35-18.62-18.62-18.62s-18.62,8.35-18.62,18.62c0,6.01,2.94,11.69,7.87,15.18l2.42,1.71-2.89.67c-15.86,3.69-26.52,14.51-26.52,26.91,0,8.62,5.23,16.67,14.35,22.07l2.49,1.48-2.74.93c-23.72,8.09-39.04,27.15-39.04,48.55v19.85Z"/>
  </g>
  <g>
    <path class="st3" d="M714.57,1661.73v-21.19c0-22.54-16.52-41.82-39.95-49.81,9.12-5.4,15.01-13.78,15.01-23.22,0-13.27-11.6-24.49-27.55-28.21,5.1-3.61,8.43-9.55,8.43-16.27,0-11.02-8.93-19.95-19.95-19.95s-19.95,8.93-19.95,19.95c0,6.72,3.34,12.66,8.43,16.27-15.96,3.71-27.55,14.94-27.55,28.21,0,9.44,5.88,17.82,15.01,23.22-23.42,7.99-39.95,27.27-39.95,49.81v21.19h128.03Z"/>
    <path class="st6" d="M715.9,1663.07h-130.7v-22.52c0-21.77,14.93-41.21,38.28-50.14-8.51-5.85-13.34-14.07-13.34-22.89,0-12.97,10.34-24.3,26-28.83-4.35-4.01-6.88-9.68-6.88-15.65,0-11.74,9.55-21.29,21.29-21.29s21.29,9.55,21.29,21.29c0,5.96-2.53,11.64-6.88,15.65,15.66,4.53,26,15.86,26,28.83,0,8.82-4.83,17.04-13.34,22.89,23.35,8.94,38.28,28.37,38.28,50.14v22.52ZM587.87,1660.4h125.36v-19.85c0-21.4-15.33-40.46-39.05-48.55l-2.74-.93,2.49-1.48c9.12-5.4,14.35-13.45,14.35-22.07,0-12.4-10.66-23.21-26.52-26.91l-2.89-.67,2.42-1.71c4.93-3.5,7.87-9.17,7.87-15.18,0-10.27-8.35-18.62-18.62-18.62s-18.62,8.35-18.62,18.62c0,6.01,2.94,11.69,7.87,15.18l2.42,1.71-2.89.67c-15.86,3.69-26.52,14.51-26.52,26.91,0,8.62,5.23,16.67,14.35,22.07l2.49,1.48-2.74.93c-23.72,8.09-39.04,27.15-39.04,48.55v19.85Z"/>
  </g>
  <g>
    <path class="st3" d="M481.61,1661.73v-21.19c0-22.54-16.52-41.82-39.95-49.81,9.12-5.4,15.01-13.78,15.01-23.22,0-13.27-11.6-24.49-27.55-28.21,5.1-3.61,8.43-9.55,8.43-16.27,0-11.02-8.93-19.95-19.95-19.95s-19.95,8.93-19.95,19.95c0,6.72,3.34,12.66,8.43,16.27-15.96,3.71-27.55,14.94-27.55,28.21,0,9.44,5.88,17.82,15.01,23.22-23.42,7.99-39.95,27.27-39.95,49.81v21.19h128.03Z"/>
    <path class="st6" d="M482.94,1663.07h-130.7v-22.52c0-21.77,14.93-41.21,38.28-50.14-8.51-5.85-13.34-14.07-13.34-22.89,0-12.97,10.34-24.3,26-28.83-4.35-4.01-6.88-9.68-6.88-15.65,0-11.74,9.55-21.29,21.29-21.29s21.29,9.55,21.29,21.29c0,5.97-2.53,11.64-6.88,15.65,15.66,4.53,26,15.86,26,28.83,0,8.82-4.83,17.04-13.34,22.89,23.35,8.94,38.28,28.37,38.28,50.14v22.52ZM354.91,1660.4h125.36v-19.85c0-21.4-15.33-40.46-39.04-48.55l-2.74-.93,2.49-1.48c9.12-5.4,14.35-13.45,14.35-22.07,0-12.4-10.66-23.21-26.52-26.91l-2.89-.67,2.42-1.71c4.93-3.49,7.87-9.17,7.87-15.18,0-10.27-8.35-18.62-18.62-18.62s-18.62,8.35-18.62,18.62c0,6.01,2.94,11.69,7.87,15.18l2.42,1.71-2.89.67c-15.86,3.69-26.52,14.51-26.52,26.91,0,8.62,5.23,16.67,14.35,22.07l2.49,1.48-2.74.93c-23.72,8.09-39.04,27.15-39.04,48.55v19.85Z"/>
  </g>
  <g>
    <path class="st3" d="M248.64,1661.73v-21.19c0-22.54-16.52-41.82-39.95-49.81,9.12-5.4,15.01-13.78,15.01-23.22,0-13.27-11.6-24.49-27.55-28.21,5.1-3.61,8.43-9.55,8.43-16.27,0-11.02-8.93-19.95-19.95-19.95s-19.95,8.93-19.95,19.95c0,6.72,3.34,12.66,8.43,16.27-15.96,3.71-27.55,14.94-27.55,28.21,0,9.44,5.88,17.82,15.01,23.22-23.42,7.99-39.95,27.27-39.95,49.81v21.19h128.03Z"/>
    <path class="st6" d="M249.98,1663.07H119.28v-22.52c0-21.77,14.93-41.21,38.28-50.14-8.51-5.85-13.34-14.07-13.34-22.89,0-12.97,10.34-24.3,26-28.83-4.35-4.01-6.88-9.68-6.88-15.65,0-11.74,9.55-21.29,21.29-21.29s21.29,9.55,21.29,21.29c0,5.97-2.53,11.64-6.88,15.65,15.66,4.53,26,15.86,26,28.83,0,8.82-4.83,17.04-13.34,22.89,23.35,8.94,38.28,28.37,38.28,50.14v22.52ZM121.95,1660.4h125.36v-19.85c0-21.4-15.33-40.46-39.04-48.55l-2.74-.93,2.49-1.48c9.12-5.4,14.35-13.45,14.35-22.07,0-12.4-10.66-23.21-26.52-26.91l-2.89-.67,2.42-1.71c4.93-3.49,7.87-9.17,7.87-15.18,0-10.27-8.35-18.62-18.62-18.62s-18.62,8.35-18.62,18.62c0,6.01,2.94,11.69,7.87,15.18l2.42,1.71-2.89.67c-15.86,3.69-26.52,14.51-26.52,26.91,0,8.62,5.23,16.67,14.35,22.07l2.49,1.48-2.74.93c-23.72,8.09-39.04,27.15-39.04,48.55v19.85Z"/>
  </g>
  <g>
    <g>
      <polygon class="st3" points="1871.79 1877.34 1871.79 1855.55 1871.79 1855.55 1871.79 1855.55 1871.79 1853.41 1859.82 1844.86 1853.62 1844.86 1853.62 1774.35 1859.82 1774.35 1871.79 1765.8 1871.79 1763.67 1871.79 1763.67 1871.79 1763.67 1871.79 1734.71 1847.85 1734.71 1847.85 1750.1 1825.63 1750.1 1825.63 1734.71 1801.7 1734.71 1801.7 1750.1 1779.48 1750.1 1779.48 1734.71 1755.55 1734.71 1755.55 1763.67 1755.55 1763.67 1755.55 1763.67 1755.55 1765.8 1767.51 1774.35 1773.71 1774.35 1773.71 1844.86 1767.51 1844.86 1755.55 1853.41 1755.55 1855.55 1755.55 1855.55 1755.55 1855.55 1755.55 1877.34 1739.52 1877.34 1739.52 1899.57 1887.81 1899.57 1887.81 1877.34 1871.79 1877.34"/>
      <path d="M1889,1900.75h-150.67v-24.59h16.03v-23.36l12.77-9.12h5.39v-68.14h-5.39l-12.77-9.12v-32.89h26.3v15.39h19.85v-15.39h26.31v15.39h19.85v-15.39h26.3v32.89l-12.77,9.12h-5.39v68.14h5.39l12.77,9.12v23.36h16.03v24.59ZM1740.71,1898.38h145.92v-19.85h-16.03v-24.51l-11.16-7.97h-7v-72.89h7l11.16-7.97v-29.29h-21.56v15.39h-24.59v-15.39h-21.56v15.39h-24.59v-15.39h-21.56v29.29l11.16,7.97h7v72.89h-7l-11.16,7.97v24.51h-16.03v19.85Z"/>
    </g>
    <rect class="st4" x="1771.47" y="1773.16" width="84.3" height="2.37"/>
    <rect class="st4" x="1755.01" y="1763.12" width="116.78" height="2.37"/>
    <rect class="st4" x="1770.82" y="1843.68" width="84.3" height="2.37"/>
    <rect class="st4" x="1754.8" y="1853.72" width="116.78" height="2.37"/>
    <rect class="st4" x="1754.8" y="1875.51" width="116.78" height="3.02"/>
  </g>
  <g>
    <g>
      <polygon class="st3" points="242.75 1877.34 242.75 1855.55 242.75 1855.55 242.75 1855.55 242.75 1853.41 230.78 1844.86 224.59 1844.86 224.59 1774.35 230.78 1774.35 242.75 1765.8 242.75 1763.67 242.75 1763.67 242.75 1763.67 242.75 1734.71 218.82 1734.71 218.82 1750.1 196.6 1750.1 196.6 1734.71 172.66 1734.71 172.66 1750.1 150.44 1750.1 150.44 1734.71 126.51 1734.71 126.51 1763.67 126.51 1763.67 126.51 1763.67 126.51 1765.8 138.47 1774.35 144.67 1774.35 144.67 1844.86 138.47 1844.86 126.51 1853.41 126.51 1855.55 126.51 1855.55 126.51 1855.55 126.51 1877.34 110.48 1877.34 110.48 1899.57 258.78 1899.57 258.78 1877.34 242.75 1877.34"/>
      <path d="M259.96,1900.75H109.3v-24.59h16.03v-23.36l12.77-9.12h5.39v-68.14h-5.39l-12.77-9.12v-32.89h26.3v15.39h19.85v-15.39h26.31v15.39h19.85v-15.39h26.3v32.89l-12.77,9.12h-5.39v68.14h5.39l12.77,9.12v23.36h16.03v24.59ZM111.67,1898.38h145.92v-19.85h-16.03v-24.51l-11.16-7.97h-7v-72.89h7l11.16-7.97v-29.29h-21.56v15.39h-24.59v-15.39h-21.56v15.39h-24.59v-15.39h-21.56v29.29l11.16,7.97h7v72.89h-7l-11.16,7.97v24.51h-16.03v19.85Z"/>
    </g>
    <rect class="st4" x="142.43" y="1773.16" width="84.3" height="2.37"/>
    <rect class="st4" x="125.97" y="1763.12" width="116.78" height="2.37"/>
    <rect class="st4" x="141.79" y="1843.68" width="84.3" height="2.37"/>
    <rect class="st4" x="125.76" y="1853.72" width="116.78" height="2.37"/>
    <rect class="st4" x="125.76" y="1875.51" width="116.78" height="3.02"/>
  </g>
  <g>
    <polygon class="st4" points="1873.49 244.83 1873.49 223.04 1873.49 223.04 1873.49 223.04 1873.49 220.9 1861.53 212.35 1855.33 212.35 1855.33 141.84 1861.53 141.84 1873.49 133.29 1873.49 131.16 1873.49 131.16 1873.49 131.16 1873.49 102.2 1849.56 102.2 1849.56 117.59 1827.34 117.59 1827.34 102.2 1803.4 102.2 1803.4 117.59 1781.18 117.59 1781.18 102.2 1757.25 102.2 1757.25 131.16 1757.25 131.16 1757.25 131.16 1757.25 133.29 1769.22 141.84 1775.41 141.84 1775.41 212.35 1769.22 212.35 1757.25 220.9 1757.25 223.04 1757.25 223.04 1757.25 223.04 1757.25 244.83 1741.22 244.83 1741.22 267.06 1889.52 267.06 1889.52 244.83 1873.49 244.83"/>
    <path d="M1890.7,268.24h-150.67v-24.59h16.03v-23.36l12.77-9.12h5.39v-68.14h-5.39l-12.77-9.12v-32.89h26.3v15.39h19.85v-15.39h26.31v15.39h19.85v-15.39h26.3v32.89l-12.77,9.12h-5.39v68.14h5.39l12.77,9.12v23.36h16.03v24.59Z"/>
    <rect class="st3" x="1776.6" y="140.65" width="77.54" height="2.37"/>
    <rect class="st3" x="1756.72" y="130.61" width="116.78" height="2.37"/>
    <rect class="st3" x="1776.6" y="211.17" width="77.54" height="2.37"/>
    <rect class="st3" x="1756.5" y="221.21" width="116.78" height="2.37"/>
    <rect class="st3" x="1756.5" y="243" width="116.78" height="3.02"/>
    <path d="M1890.7,268.24h-150.67v-24.59h16.03v-23.36l12.77-9.12h5.39v-68.14h-5.39l-12.77-9.12v-32.89h26.3v15.39h19.85v-15.39h26.31v15.39h19.85v-15.39h26.3v32.89l-12.77,9.12h-5.39v68.14h5.39l12.77,9.12v23.36h16.03v24.59ZM1742.41,265.87h145.92v-19.85h-16.03v-24.51l-11.16-7.97h-7v-72.89h7l11.16-7.97v-29.29h-21.56v15.39h-24.59v-15.39h-21.56v15.39h-24.59v-15.39h-21.56v29.29l11.16,7.97h7v72.89h-7l-11.16,7.97v24.51h-16.03v19.85Z"/>
  </g>
  <g>
    <polygon class="st4" points="242.75 244.83 242.75 223.04 242.75 223.04 242.75 223.04 242.75 220.9 230.78 212.35 224.59 212.35 224.59 141.84 230.78 141.84 242.75 133.29 242.75 131.16 242.75 131.16 242.75 131.16 242.75 102.2 218.82 102.2 218.82 117.59 196.6 117.59 196.6 102.2 172.66 102.2 172.66 117.59 150.44 117.59 150.44 102.2 126.51 102.2 126.51 131.16 126.51 131.16 126.51 131.16 126.51 133.29 138.47 141.84 144.67 141.84 144.67 212.35 138.47 212.35 126.51 220.9 126.51 223.04 126.51 223.04 126.51 223.04 126.51 244.83 110.48 244.83 110.48 267.06 258.78 267.06 258.78 244.83 242.75 244.83"/>
    <path d="M259.96,268.24H109.3v-24.59h16.03v-23.36l12.77-9.12h5.39v-68.14h-5.39l-12.77-9.12v-32.89h26.3v15.39h19.85v-15.39h26.31v15.39h19.85v-15.39h26.3v32.89l-12.77,9.12h-5.39v68.14h5.39l12.77,9.12v23.36h16.03v24.59Z"/>
    <rect class="st3" x="145.86" y="140.65" width="77.54" height="2.37"/>
    <rect class="st3" x="125.97" y="130.61" width="116.78" height="2.37"/>
    <rect class="st3" x="145.86" y="211.17" width="77.54" height="2.37"/>
    <rect class="st3" x="125.76" y="221.21" width="116.78" height="2.37"/>
    <rect class="st3" x="125.76" y="243" width="116.78" height="3.02"/>
    <path d="M259.96,268.24H109.3v-24.59h16.03v-23.36l12.77-9.12h5.39v-68.14h-5.39l-12.77-9.12v-32.89h26.3v15.39h19.85v-15.39h26.31v15.39h19.85v-15.39h26.3v32.89l-12.77,9.12h-5.39v68.14h5.39l12.77,9.12v23.36h16.03v24.59ZM111.67,265.87h145.92v-19.85h-16.03v-24.51l-11.16-7.97h-7v-72.89h7l11.16-7.97v-29.29h-21.56v15.39h-24.59v-15.39h-21.56v15.39h-24.59v-15.39h-21.56v29.29l11.16,7.97h7v72.89h-7l-11.16,7.97v24.51h-16.03v19.85Z"/>
  </g>
  <g>
    <g>
      <path class="st3" d="M929.11,1822.08s-4.42-49.48-19.44-74.21c0,0-20.32,22.97-25.62,64.49,0,.02,0,.04,0,.06,0-.02,0-.04,0-.06-5.3-41.52-25.62-64.49-25.62-64.49-15.02,24.74-19.44,74.21-19.44,74.21,0,0-32.1-29.01-39.01-35.43,5.04,6.11,25.05,69.56,25.05,69.56,12.54,30.93-6.69,15.05-3.34,35.11,1.72,10.31,33.88,15.32,65.21,15.04,29.65-.27,58.55-5.28,60.18-15.04,3.34-20.06-15.88-4.18-3.34-35.11,0,0,19.36-63.45,24.4-69.56-6.91,6.42-39.01,35.43-39.01,35.43Z"/>
      <path class="st6" d="M884.37,1907.7c-30.52,0-62.15-5-64.01-16.16-1.57-9.39,1.73-11.83,4.38-13.79,3-2.22,5.83-4.31-.95-21.04-5.58-17.68-20.84-64.37-24.85-69.21l1.94-1.83c5.84,5.42,29.96,27.24,37.04,33.65,1.15-10.69,6.17-50.42,19.36-72.14l.94-1.55,1.2,1.36c.19.22,17.9,20.6,24.63,56.81,6.74-36.23,24.44-56.6,24.63-56.81l1.2-1.36.94,1.55c13.19,21.72,18.21,61.46,19.36,72.14,7.08-6.4,31.2-28.23,37.04-33.65l1.94,1.83c-4,4.85-18.79,51.52-24.15,69.1-6.82,16.84-3.99,18.93-.99,21.15,2.65,1.96,5.94,4.39,4.38,13.79-1.92,11.53-34.32,15.9-61.48,16.15-.84,0-1.68.01-2.52.01ZM804.42,1792.54c7.43,17.56,21.18,61.08,21.87,63.27,7,17.25,4.56,20.74.03,24.08-2.38,1.76-4.63,3.42-3.33,11.21,1.35,8.07,27.16,13.93,61.38,13.93.83,0,1.66,0,2.5-.01,32.82-.3,57.58-6.15,58.88-13.92,1.3-7.78-.95-9.45-3.33-11.21-4.53-3.35-6.97-6.84.07-24.18.63-2.09,13.97-45.71,21.25-63.23-11.35,10.36-33.46,30.35-33.73,30.59l-1.98,1.79-.24-2.66c-.04-.48-4.37-47.31-18.29-71.99-4.38,5.64-19.67,27.49-24.12,62.33l-1.38,10.8-1.28-10.75c-4.46-34.92-19.75-56.75-24.13-62.38-13.92,24.69-18.24,71.51-18.29,71.99l-.24,2.66-1.98-1.79c-.27-.24-22.29-20.15-33.67-30.52Z"/>
    </g>
    <g>
      <circle class="st3" cx="857.19" cy="1737.89" r="9.98" transform="translate(-376.36 243.43) rotate(-13.28)"/>
      <path class="st6" d="M857.19,1749.2c-6.24,0-11.31-5.07-11.31-11.31s5.07-11.31,11.31-11.31,11.31,5.07,11.31,11.31-5.07,11.31-11.31,11.31ZM857.19,1729.24c-4.77,0-8.65,3.88-8.65,8.65s3.88,8.65,8.65,8.65,8.65-3.88,8.65-8.65-3.88-8.65-8.65-8.65Z"/>
    </g>
    <g>
      <circle class="st3" cx="910.48" cy="1737.89" r="9.98" transform="translate(-266.62 168.28) rotate(-9.22)"/>
      <path class="st6" d="M910.48,1749.2c-6.24,0-11.31-5.07-11.31-11.31s5.07-11.31,11.31-11.31,11.31,5.07,11.31,11.31-5.07,11.31-11.31,11.31ZM910.48,1729.24c-4.77,0-8.65,3.88-8.65,8.65s3.88,8.65,8.65,8.65,8.65-3.88,8.65-8.65-3.88-8.65-8.65-8.65Z"/>
    </g>
    <g>
      <circle class="st3" cx="971.29" cy="1779.27" r="9.98"/>
      <path class="st6" d="M971.29,1790.58c-6.24,0-11.31-5.08-11.31-11.31s5.07-11.31,11.31-11.31,11.31,5.07,11.31,11.31-5.07,11.31-11.31,11.31ZM971.29,1770.62c-4.77,0-8.65,3.88-8.65,8.65s3.88,8.65,8.65,8.65,8.65-3.88,8.65-8.65-3.88-8.65-8.65-8.65Z"/>
    </g>
    <g>
      <circle class="st3" cx="795.75" cy="1779.27" r="9.98"/>
      <path class="st6" d="M795.75,1790.58c-6.24,0-11.31-5.08-11.31-11.31s5.07-11.31,11.31-11.31,11.31,5.07,11.31,11.31-5.07,11.31-11.31,11.31ZM795.75,1770.62c-4.77,0-8.65,3.88-8.65,8.65s3.88,8.65,8.65,8.65,8.65-3.88,8.65-8.65-3.88-8.65-8.65-8.65Z"/>
    </g>
    <path d="M884.23,1831.63c-34.24.34-51.89,11.61-60.94,16.34l.69,2.49c8.34-4.52,25.47-15.98,60.27-16.32,34.63-.35,52.31,9.66,61.15,13.04l.68-2.43c-9.44-3.57-27.52-13.48-61.86-13.12Z"/>
    <path d="M884.23,1849.21c-28.88.28-45.94,10.14-56.01,14.11.24.9.42,1.72.56,2.49,9.57-3.86,26.32-13.81,55.47-14.09,28.98-.31,46.08,8.52,56.08,11.36.2-.74.44-1.54.71-2.37-10.4-2.96-27.79-11.77-56.81-11.49Z"/>
    <path d="M884.26,1869.29c37.25-.35,54.88,10.27,63,13.81-.12-1.23-.38-2.22-.75-3.03-9.32-3.62-27.41-13.65-62.28-13.29-37.18.37-54.78,12.51-63.07,17.54-.01.86.04,1.81.16,2.89,7.09-4.78,23.9-17.55,62.93-17.93Z"/>
    <ellipse cx="884.21" cy="1841.04" rx="9.61" ry="3.56"/>
    <path d="M855.39,1845.48c.51,1.9-3.24,4.55-8.37,5.92-5.13,1.37-9.7.94-10.21-.96-.51-1.9,3.24-4.55,8.37-5.92,5.13-1.37,9.7-.94,10.21.96Z"/>
    <path d="M912.7,1845.48c-.51,1.9,3.24,4.55,8.37,5.92,5.13,1.37,9.7.94,10.21-.96.51-1.9-3.24-4.55-8.37-5.92-5.13-1.37-9.7-.94-10.21.96Z"/>
  </g>
  <g>
    <path d="M923.56,189.57s-4.42-49.48-19.44-74.21c0,0-20.32,22.97-25.62,64.49,0,.02,0,.04,0,.06,0-.02,0-.04,0-.06-5.3-41.52-25.62-64.49-25.62-64.49-15.02,24.74-19.44,74.21-19.44,74.21,0,0-32.1-29.01-39.01-35.43,5.04,6.11,25.05,69.56,25.05,69.56,12.54,30.93-6.69,15.05-3.34,35.11,1.72,10.31,33.88,15.32,65.21,15.04,29.65-.27,58.55-5.28,60.18-15.04,3.34-20.06-15.88-4.18-3.34-35.11,0,0,19.36-63.45,24.4-69.56-6.91,6.41-39.01,35.43-39.01,35.43Z"/>
    <g>
      <circle cx="851.64" cy="105.38" r="9.98" transform="translate(174.93 633.07) rotate(-45)"/>
      <path d="M851.64,116.03c-5.87,0-10.65-4.78-10.65-10.65s4.78-10.65,10.65-10.65,10.65,4.78,10.65,10.65-4.78,10.65-10.65,10.65ZM851.64,96.07c-5.14,0-9.31,4.18-9.31,9.31s4.18,9.31,9.31,9.31,9.31-4.18,9.31-9.31-4.18-9.31-9.31-9.31Z"/>
    </g>
    <g>
      <circle cx="904.93" cy="105.38" r="9.98" transform="translate(190.53 670.75) rotate(-45)"/>
      <path d="M904.93,116.03c-5.87,0-10.65-4.78-10.65-10.65s4.78-10.65,10.65-10.65,10.65,4.78,10.65,10.65-4.78,10.65-10.65,10.65ZM904.93,96.07c-5.14,0-9.31,4.18-9.31,9.31s4.18,9.31,9.31,9.31,9.31-4.18,9.31-9.31-4.18-9.31-9.31-9.31Z"/>
    </g>
    <g>
      <circle cx="965.75" cy="146.76" r="9.98" transform="translate(179.09 725.87) rotate(-45)"/>
      <path d="M965.75,157.4c-5.87,0-10.65-4.78-10.65-10.65s4.78-10.65,10.65-10.65,10.65,4.78,10.65,10.65-4.78,10.65-10.65,10.65ZM965.75,137.44c-5.14,0-9.31,4.18-9.31,9.31s4.18,9.31,9.31,9.31,9.31-4.18,9.31-9.31-4.18-9.31-9.31-9.31Z"/>
    </g>
    <g>
      <circle cx="790.2" cy="146.76" r="9.98" transform="translate(-13.3 128.47) rotate(-9.22)"/>
      <path d="M790.2,157.4c-5.87,0-10.65-4.78-10.65-10.65s4.78-10.65,10.65-10.65,10.65,4.78,10.65,10.65-4.78,10.65-10.65,10.65ZM790.2,137.44c-5.14,0-9.31,4.18-9.31,9.31s4.18,9.31,9.31,9.31,9.31-4.18,9.31-9.31-4.18-9.31-9.31-9.31Z"/>
    </g>
    <path class="st3" d="M878.69,199.12c-34.24.34-51.89,11.61-60.94,16.34l.69,2.49c8.34-4.52,25.47-15.98,60.27-16.32,34.63-.35,52.31,9.66,61.15,13.04l.68-2.43c-9.44-3.57-27.52-13.48-61.86-13.12Z"/>
    <path class="st3" d="M878.69,216.7c-28.88.28-45.94,10.14-56.01,14.11.24.9.42,1.72.56,2.49,9.57-3.86,26.32-13.81,55.47-14.09,28.98-.31,46.08,8.52,56.08,11.36.2-.74.44-1.54.71-2.37-10.4-2.96-27.79-11.77-56.81-11.49Z"/>
    <path class="st3" d="M878.71,236.78c37.25-.35,54.88,10.27,63,13.81-.12-1.23-.38-2.22-.75-3.03-9.32-3.62-27.41-13.65-62.28-13.29-37.18.37-54.78,12.51-63.07,17.54-.01.86.04,1.81.16,2.89,7.09-4.78,23.9-17.55,62.93-17.93Z"/>
    <path class="st3" d="M888.28,208.53c0,1.97-4.3,3.56-9.61,3.56s-9.61-1.59-9.61-3.56,4.3-3.56,9.61-3.56,9.61,1.59,9.61,3.56Z"/>
    <path class="st3" d="M849.85,212.97c.51,1.9-3.24,4.55-8.37,5.92-5.13,1.37-9.7.94-10.21-.96-.51-1.9,3.24-4.55,8.37-5.92,5.13-1.37,9.7-.94,10.21.96Z"/>
    <path class="st3" d="M907.15,212.97c-.51,1.9,3.24,4.55,8.37,5.92,5.13,1.37,9.7.94,10.21-.96.51-1.9-3.24-4.55-8.37-5.92-5.13-1.37-9.7-.94-10.21.96Z"/>
  </g>
  <g>
    <g>
      <path class="st3" d="M1545.47,1751.31s-4.83-15.22-19.09-23.53c0,0-5.54,13.86,0,23.76,0,0,.79,10.3-11.48,18.22,0,0-3.17,3.17-1.98,17.03s-15.05,26.53-18.61,31.29c-3.56,4.75-9.9,28.91,0,36.43,9.9,7.52,27.33,9.11,38.02-3.17,10.69-12.28,12.67-17.43,23.76-23.37,11.09-5.94,23.76-18.61,23.37-31.68-.4-13.07,0-6.73,0-6.73,0,0,9.12,18.61,0,39.21-9.12,20.59-16.85,23.37-25.66,33.27-8.81,9.9-17.37,15.5-14.87,35.08h114.53s-2.8-60.31-7.01-77.6c-4.21-17.3-11.22-58.9-71.53-71.53,0,0-25.18-3.96-42.6,11.08"/>
      <path d="M1654.86,1898.43h-117.11l-.15-1.16c-2.24-17.54,4.21-24.39,11.68-32.32,1.15-1.22,2.33-2.48,3.52-3.81,2.42-2.72,4.77-4.92,7.04-7.05,6.09-5.71,11.85-11.1,18.39-25.88,5.28-11.93,4.22-23.29,2.53-30.44-.53,12.97-12.63,25.24-24.06,31.36-7.99,4.28-11.02,8.02-16.51,14.81-1.92,2.38-4.1,5.07-6.88,8.26-10.89,12.5-29.15,11.47-39.83,3.35-10.61-8.06-4.06-33.22-.26-38.3.8-1.07,2.12-2.43,3.78-4.14,5.78-5.95,15.45-15.91,14.57-26.23-1.21-14.07,2-17.72,2.37-18.09l.22-.18c10.47-6.75,10.9-15.11,10.89-16.73-5.53-10.31-.15-24.04.08-24.62l.57-1.44,1.34.78c12.2,7.12,17.65,18.94,19.2,22.94,14.29-5.08,28.1-3.02,28.88-2.9,58.41,12.23,67.6,51.24,72.01,69.99.21.9.41,1.75.61,2.54,4.19,17.22,6.93,75.39,7.05,77.86l.07,1.4ZM1540.11,1895.77h111.95c-.45-9.14-3.13-60.43-6.91-75.95-.2-.8-.4-1.66-.61-2.56-4.29-18.21-13.21-56.11-69.89-67.97-.18-.03-24.72-3.67-41.46,10.79l-1.74-2.02c3.86-3.34,8.08-5.77,12.31-7.53-1.4-3.52-6.27-14.05-16.66-20.74-1.19,3.75-3.69,13.73.45,21.11l.14.26.02.29c.04.45.7,11.09-11.92,19.33-.35.52-2.55,4.21-1.55,15.91.99,11.54-9.21,22.04-15.31,28.32-1.54,1.58-2.86,2.95-3.56,3.88-3.26,4.34-9.27,27.73-.26,34.57,9.72,7.39,26.33,8.35,36.21-2.98,2.74-3.15,4.91-5.82,6.81-8.18,5.52-6.83,8.86-10.95,17.32-15.49,11.53-6.18,23.02-18.63,22.66-30.47q-.29-9.57,1.13-9.64c1.3-.1,1.42.96,1.53,2.53,1.11,2.39,8.71,20.2-.09,40.09-6.76,15.27-12.71,20.84-19.01,26.74-2.23,2.08-4.53,4.24-6.87,6.87-1.2,1.35-2.4,2.63-3.57,3.87-7.12,7.56-12.78,13.57-11.11,28.99Z"/>
    </g>
    <rect x="1503.28" y="1850.33" width="18.84" height="2.67" transform="translate(-817.1859 2388.815) rotate(-63.7358)"/>
    <path d="M1496.09,1838.59c-.67-6.03,7.34-11.03,7.69-11.24l1.25,2.02c-1.97,1.22-6.99,5.2-6.57,8.96l-2.36.26Z"/>
    <path d="M1526.2,1784.31c.72.08,4.6.49,7.13-.01,0,0,1.57-5.6.97-6.81l-8.11,6.83Z"/>
    <path d="M1520.83,1788.76s1.39-5.74,7.13-10.49c5.74-4.75,11.68-5.35,11.68-5.35l-18.81,15.84Z"/>
    <g>
      <path class="st3" d="M1572.71,1761.83c4.75-20.59-10.3-34.06-10.3-34.06-13.46,18.22-7.13,32.08-7.13,32.08"/>
      <path d="M1574.01,1762.13l-2.6-.6c3.78-16.36-5.6-28.2-8.83-31.7-11.66,16.75-6.14,29.33-6.08,29.46l-2.42,1.11c-.27-.6-6.51-14.79,7.27-33.43l.87-1.18,1.09.98c.16.14,15.58,14.23,10.71,35.35Z"/>
    </g>
  </g>
  <g>
    <g>
      <path class="st3" d="M391.77,1751.31s-4.83-15.22-19.09-23.53c0,0-5.54,13.86,0,23.76,0,0,.79,10.3-11.48,18.22,0,0-3.17,3.17-1.98,17.03,1.19,13.86-15.05,26.53-18.61,31.29s-9.9,28.91,0,36.43c9.9,7.52,27.33,9.11,38.02-3.17,10.69-12.28,12.67-17.43,23.76-23.37,11.09-5.94,23.76-18.61,23.37-31.68-.4-13.07,0-6.73,0-6.73,0,0,9.12,18.61,0,39.21-9.12,20.59-16.85,23.37-25.66,33.27-8.81,9.9-17.37,15.5-14.87,35.08h114.53s-2.81-60.31-7.01-77.6c-4.21-17.3-11.22-58.9-71.53-71.53,0,0-25.18-3.96-42.6,11.08"/>
      <path d="M501.16,1898.43h-117.11l-.15-1.16c-2.24-17.54,4.21-24.39,11.68-32.32,1.15-1.22,2.33-2.48,3.52-3.81,2.42-2.72,4.77-4.92,7.04-7.05,6.09-5.71,11.85-11.1,18.39-25.88,5.28-11.93,4.22-23.29,2.53-30.44-.53,12.97-12.63,25.24-24.06,31.36-7.99,4.28-11.02,8.02-16.51,14.81-1.92,2.38-4.1,5.07-6.88,8.26-10.89,12.5-29.15,11.47-39.83,3.35-10.61-8.06-4.06-33.22-.26-38.3.8-1.07,2.12-2.43,3.78-4.14,5.78-5.95,15.45-15.91,14.57-26.23-1.21-14.07,2-17.72,2.37-18.09l.22-.18c10.47-6.75,10.9-15.11,10.89-16.73-5.53-10.31-.15-24.04.08-24.62l.57-1.44,1.34.78c12.2,7.12,17.65,18.94,19.2,22.94,14.29-5.08,28.1-3.02,28.88-2.9,58.41,12.23,67.6,51.24,72.01,69.99.21.9.41,1.75.61,2.54,4.19,17.22,6.93,75.39,7.05,77.86l.07,1.4ZM386.41,1895.77h111.95c-.45-9.14-3.13-60.43-6.91-75.95-.2-.8-.4-1.66-.61-2.56-4.29-18.21-13.21-56.11-69.89-67.97-.18-.03-24.72-3.67-41.46,10.79l-1.74-2.02c3.86-3.34,8.08-5.77,12.31-7.53-1.4-3.52-6.27-14.05-16.66-20.74-1.19,3.75-3.69,13.73.45,21.11l.14.26.02.29c.04.45.7,11.09-11.92,19.33-.35.52-2.55,4.21-1.55,15.91.99,11.54-9.21,22.04-15.31,28.32-1.54,1.58-2.86,2.95-3.56,3.88-3.26,4.34-9.27,27.73-.26,34.57,9.72,7.39,26.33,8.35,36.21-2.98,2.74-3.15,4.91-5.82,6.81-8.18,5.52-6.83,8.86-10.95,17.32-15.49,11.53-6.18,23.02-18.63,22.66-30.47q-.29-9.57,1.13-9.64c1.3-.1,1.42.96,1.53,2.53,1.11,2.39,8.71,20.2-.09,40.09-6.76,15.27-12.71,20.84-19.01,26.74-2.23,2.08-4.53,4.24-6.87,6.87-1.2,1.35-2.4,2.63-3.57,3.87-7.12,7.56-12.78,13.57-11.11,28.99Z"/>
    </g>
    <rect x="349.58" y="1850.33" width="18.84" height="2.67" transform="translate(-1460.3518 1354.1906) rotate(-63.7348)"/>
    <path d="M342.39,1838.59c-.67-6.03,7.34-11.03,7.69-11.24l1.25,2.02c-1.97,1.22-6.99,5.2-6.57,8.96l-2.36.26Z"/>
    <path d="M372.5,1784.31c.72.08,4.6.49,7.13-.01,0,0,1.57-5.6.97-6.81l-8.11,6.83Z"/>
    <path d="M367.14,1788.76s1.39-5.74,7.13-10.49c5.74-4.75,11.68-5.35,11.68-5.35l-18.81,15.84Z"/>
    <g>
      <path class="st3" d="M419.01,1761.83c4.75-20.59-10.3-34.06-10.3-34.06-13.46,18.22-7.13,32.08-7.13,32.08"/>
      <path d="M420.31,1762.13l-2.6-.6c3.78-16.36-5.6-28.2-8.83-31.7-11.66,16.75-6.14,29.33-6.08,29.46l-2.42,1.11c-.27-.6-6.51-14.79,7.27-33.43l.87-1.18,1.09.98c.16.14,15.58,14.23,10.71,35.35Z"/>
    </g>
  </g>
  <g>
    <g>
      <path d="M1549.14,118.63s-4.83-15.22-19.09-23.53c0,0-5.54,13.86,0,23.76,0,0,.79,10.3-11.48,18.22,0,0-3.17,3.17-1.98,17.03,1.19,13.86-15.05,26.53-18.61,31.29s-9.9,28.91,0,36.43c9.9,7.52,27.33,9.11,38.02-3.17,10.69-12.28,12.67-17.43,23.76-23.37,11.09-5.94,23.76-18.61,23.37-31.68-.4-13.07,0-6.73,0-6.73,0,0,9.12,18.61,0,39.21-9.12,20.59-16.85,23.37-25.66,33.27-8.81,9.9-17.37,15.5-14.87,35.08h114.53s-2.8-60.31-7.01-77.6-11.22-58.9-71.53-71.53c0,0-25.18-3.96-42.6,11.08"/>
      <path d="M1658.53,265.76h-117.1l-.15-1.16c-2.24-17.54,4.21-24.39,11.68-32.32,1.15-1.22,2.33-2.48,3.52-3.81,2.42-2.72,4.77-4.92,7.04-7.05,6.09-5.71,11.85-11.1,18.39-25.87,5.28-11.94,4.22-23.29,2.53-30.44-.53,12.97-12.63,25.24-24.06,31.36-7.99,4.28-11.02,8.02-16.51,14.81-1.92,2.38-4.1,5.07-6.87,8.25-10.88,12.5-29.15,11.47-39.83,3.35-10.6-8.06-4.06-33.22-.26-38.3.8-1.07,2.12-2.43,3.78-4.14,5.78-5.95,15.45-15.91,14.57-26.23-1.21-14.07,2-17.72,2.37-18.09l.22-.18c10.41-6.72,10.89-15.16,10.88-16.74-5.53-10.31-.15-24.03.08-24.62l.57-1.44,1.34.78c12.2,7.12,17.65,18.94,19.2,22.94,14.29-5.08,28.1-3.02,28.87-2.9,58.41,12.22,67.6,51.24,72.01,69.99.21.9.41,1.74.6,2.54,4.19,17.22,6.93,75.39,7.05,77.86l.07,1.4ZM1543.78,263.09h111.95c-.45-9.14-3.13-60.43-6.91-75.95-.2-.8-.4-1.66-.61-2.56-4.29-18.21-13.21-56.11-69.89-67.97-.18-.03-24.72-3.67-41.46,10.79l-1.74-2.02c3.86-3.34,8.08-5.77,12.31-7.53-1.4-3.52-6.27-14.05-16.66-20.74-1.19,3.75-3.69,13.73.45,21.11l.14.26.02.29c.04.45.7,11.09-11.92,19.33-.36.52-2.55,4.21-1.55,15.91.99,11.54-9.21,22.04-15.31,28.32-1.54,1.58-2.86,2.94-3.56,3.88-3.26,4.34-9.26,27.73-.26,34.57,9.73,7.39,26.33,8.35,36.21-2.98,2.74-3.15,4.9-5.82,6.81-8.18,5.52-6.83,8.86-10.95,17.32-15.49,11.53-6.18,23.02-18.63,22.66-30.47q-.29-9.57,1.13-9.64c1.3-.03,1.42.96,1.53,2.53,1.11,2.39,8.71,20.2-.1,40.09-6.76,15.27-12.71,20.84-19.01,26.74-2.23,2.09-4.53,4.24-6.87,6.87-1.2,1.35-2.4,2.63-3.57,3.87-7.12,7.56-12.78,13.57-11.11,28.99Z"/>
    </g>
    <rect class="st3" x="1506.95" y="217.65" width="18.84" height="2.67" transform="translate(648.4124 1481.5132) rotate(-63.7098)"/>
    <path class="st3" d="M1499.76,205.91c-.67-6.03,7.35-11.03,7.69-11.24l1.25,2.02c-1.97,1.22-6.99,5.2-6.57,8.96l-2.36.26Z"/>
    <path class="st3" d="M1529.87,151.63c.72.08,4.6.49,7.13-.01,0,0,1.57-5.6.97-6.81l-8.11,6.83Z"/>
    <path class="st3" d="M1524.5,156.08s1.39-5.74,7.13-10.49c5.74-4.75,11.68-5.35,11.68-5.35l-18.81,15.84Z"/>
    <path class="st3" d="M1581.72,125.31c28.67,11.33,41.01,30.2,48.34,57.53,6.25,23.29,8.37,61.87,8.87,72.79h5.11s-1.66-48.44-8.99-75.78c-7.33-27.33-19.68-46.2-48.34-57.53-24.13-9.54-39.62-.51-44.56,3.04,7.45-3.71,20.94-7.42,39.57-.05Z"/>
    <g>
      <path d="M1576.38,129.15c4.75-20.59-10.3-34.06-10.3-34.06-13.46,18.22-7.13,32.08-7.13,32.08"/>
      <path d="M1577.68,129.45l-2.6-.6c3.79-16.4-5.59-28.21-8.83-31.7-11.61,16.66-6.31,28.94-6.08,29.47l-2.43,1.1c-.27-.6-6.51-14.79,7.27-33.42l.87-1.18,1.09.98c.16.14,15.58,14.23,10.71,35.35Z"/>
    </g>
  </g>
  <g>
    <g>
      <path d="M391.83,118.63s-4.83-15.22-19.09-23.53c0,0-5.54,13.86,0,23.76,0,0,.79,10.3-11.48,18.22,0,0-3.17,3.17-1.98,17.03,1.19,13.86-15.05,26.53-18.61,31.29s-9.9,28.91,0,36.43c9.9,7.52,27.33,9.11,38.02-3.17,10.69-12.28,12.67-17.43,23.76-23.37,11.09-5.94,23.76-18.61,23.37-31.68-.4-13.07,0-6.73,0-6.73,0,0,9.12,18.61,0,39.21-9.12,20.59-16.85,23.37-25.66,33.27-8.81,9.9-17.37,15.5-14.87,35.08h114.53s-2.8-60.31-7.01-77.6c-4.21-17.3-11.22-58.9-71.53-71.53,0,0-25.18-3.96-42.6,11.08"/>
      <path d="M501.22,265.76h-117.1l-.15-1.16c-2.24-17.54,4.21-24.39,11.68-32.32,1.15-1.22,2.33-2.48,3.52-3.81,2.42-2.72,4.77-4.92,7.04-7.05,6.09-5.71,11.85-11.09,18.39-25.87,5.29-11.94,4.22-23.29,2.53-30.44-.53,12.97-12.63,25.24-24.06,31.36-7.99,4.28-11.02,8.02-16.51,14.81-1.92,2.38-4.1,5.07-6.88,8.25-10.88,12.5-29.15,11.47-39.83,3.35-10.6-8.06-4.06-33.22-.26-38.3.8-1.07,2.12-2.43,3.78-4.14,5.78-5.95,15.45-15.91,14.57-26.23-1.21-14.07,2-17.72,2.37-18.09l.22-.18c10.47-6.75,10.9-15.11,10.89-16.73-5.53-10.31-.15-24.04.08-24.62l.57-1.44,1.34.78c12.2,7.12,17.65,18.94,19.2,22.94,14.29-5.08,28.1-3.02,28.88-2.9,58.41,12.22,67.59,51.24,72.01,69.98.21.9.41,1.75.6,2.54,4.19,17.22,6.93,75.39,7.05,77.86l.06,1.4ZM386.48,263.09h111.95c-.45-9.14-3.13-60.43-6.91-75.95-.2-.8-.4-1.66-.61-2.56-4.29-18.21-13.21-56.11-69.89-67.97-.18-.03-24.72-3.67-41.46,10.79l-1.74-2.02c3.87-3.34,8.08-5.77,12.31-7.53-1.4-3.52-6.27-14.05-16.66-20.74-1.19,3.75-3.69,13.73.45,21.11l.14.26.02.29c.03.45.7,11.09-11.92,19.33-.36.52-2.55,4.21-1.55,15.91.99,11.54-9.22,22.04-15.31,28.32-1.54,1.58-2.86,2.94-3.56,3.88-3.25,4.34-9.26,27.73-.26,34.57,9.73,7.39,26.33,8.35,36.21-2.98,2.74-3.15,4.9-5.82,6.81-8.18,5.53-6.83,8.86-10.95,17.32-15.49,11.53-6.18,23.02-18.63,22.66-30.47q-.29-9.57,1.13-9.64c1.32-.04,1.42.96,1.53,2.53,1.1,2.39,8.71,20.2-.1,40.09-6.76,15.27-12.71,20.84-19.01,26.74-2.23,2.09-4.53,4.24-6.87,6.87-1.2,1.35-2.4,2.63-3.57,3.87-7.12,7.56-12.78,13.57-11.11,28.99Z"/>
    </g>
    <rect class="st3" x="349.64" y="217.65" width="18.84" height="2.67" transform="translate(3.7 443.92) rotate(-63.71)"/>
    <path class="st3" d="M342.45,205.91c-.67-6.03,7.35-11.03,7.69-11.24l1.25,2.02c-1.97,1.22-6.99,5.2-6.57,8.96l-2.36.26Z"/>
    <path class="st3" d="M372.57,151.63c.72.08,4.6.49,7.13-.01,0,0,1.57-5.6.97-6.81l-8.11,6.83Z"/>
    <path class="st3" d="M367.2,156.08s1.39-5.74,7.13-10.49c5.74-4.75,11.68-5.35,11.68-5.35l-18.81,15.84Z"/>
    <path class="st3" d="M424.41,125.31c28.67,11.33,41.01,30.2,48.34,57.53,6.25,23.29,8.37,61.87,8.87,72.79h5.11s-1.66-48.44-8.99-75.78-19.68-46.2-48.34-57.53c-24.13-9.54-39.62-.51-44.56,3.04,7.45-3.71,20.94-7.42,39.57-.05Z"/>
    <g>
      <path d="M419.08,129.15c4.75-20.59-10.3-34.06-10.3-34.06-13.46,18.22-7.13,32.08-7.13,32.08"/>
      <path d="M420.38,129.45l-2.6-.6c3.79-16.4-5.59-28.21-8.83-31.7-11.66,16.76-6.14,29.34-6.08,29.47l-2.43,1.11c-.27-.6-6.5-14.79,7.27-33.42l.87-1.18,1.09.98c.16.14,15.58,14.23,10.71,35.35Z"/>
    </g>
  </g>
  <g>
    <g>
      <path class="st3" d="M1365.36,1764.12c-11.47-6.33-13.44-17-13.44-17h-1.47s-1.98,10.68-13.44,17c-11.47,6.33-33.21,19.77-33.21,36.37s28.11,44.68,47.27,44.88c.04,0,.08,0,.12,0,.04,0,.08,0,.12,0,19.16-.2,47.27-28.27,47.27-44.88s-21.75-30.05-33.21-36.37Z"/>
      <path d="M1351.31,1846.7h-.25c-19.08-.2-48.6-28.27-48.6-46.21,0-12.5,11.41-25.13,33.9-37.54,10.79-5.95,12.76-15.98,12.78-16.08l.2-1.09h3.69l.2,1.09c.02.1,2.04,10.15,12.78,16.08,22.49,12.41,33.9,25.04,33.9,37.54,0,17.94-29.52,46.01-48.59,46.21h0ZM1351.18,1749.45c-1.2,3.58-4.64,10.93-13.53,15.84-21.58,11.91-32.52,23.75-32.52,35.21,0,15.21,27.01,43.35,45.95,43.54h.15s.11,0,.11,0c18.93-.24,45.9-28.34,45.9-43.54,0-11.45-10.94-23.3-32.52-35.21-8.9-4.91-12.33-12.26-13.53-15.84Z"/>
    </g>
    <g>
      <circle class="st3" cx="1350.45" cy="1743.97" r="11.67" transform="translate(-658.2194 2655.2254) rotate(-76.6496)"/>
      <path class="st6" d="M1350.45,1756.97c-7.17,0-13-5.83-13-13s5.83-13,13-13,13,5.83,13,13-5.83,13-13,13ZM1350.45,1733.64c-5.7,0-10.33,4.64-10.33,10.33s4.64,10.33,10.33,10.33,10.33-4.64,10.33-10.33-4.64-10.33-10.33-10.33Z"/>
    </g>
    <g>
      <path class="st3" d="M1438.3,1879.63l-13.2,19.54s-11.38-13.63-22.75-12.72c-11.38.91-20.11,9.53-30.67,9.53s-16.74-3.16-19.43-13.17c-2.68-10.01,0-22.3,0-22.3h16.88s3.16,14.02,10.01,13.2c6.86-.82,12.38-8.61,22.95-9.27,10.57-.66,20.95,1.04,36.2,15.19Z"/>
      <path d="M1425.22,1901.38l-1.14-1.36c-.11-.13-11.03-13.09-21.62-12.24-5.29.42-10.1,2.64-14.76,4.79-5.06,2.33-10.29,4.74-16.02,4.74-11.86,0-18.05-4.23-20.71-14.16-2.74-10.21-.13-22.41-.01-22.93l.23-1.05h19.02l.24,1.04c.77,3.39,3.72,12.19,8.13,12.19h0c.14,0,.28,0,.42-.03,2.68-.32,5.2-1.86,8.13-3.65,4.02-2.45,8.57-5.23,14.9-5.63,1.31-.08,2.51-.12,3.66-.12,8.23,0,18.65,1.86,33.53,15.66l.84.78-14.83,21.95ZM1403.45,1885.08c9.44,0,18.37,8.57,21.5,11.93l11.6-17.17c-13.7-12.44-22.94-14.18-30.88-14.18-1.1,0-2.24.04-3.5.12-5.67.35-9.74,2.84-13.68,5.24-3.06,1.87-5.95,3.63-9.2,4.02-.25.03-.49.04-.74.04h0c-6.39,0-9.56-9.79-10.48-13.23h-14.74c-.56,3.14-1.94,12.7.18,20.62,2.35,8.77,7.44,12.18,18.14,12.18,5.14,0,9.88-2.18,14.9-4.5,4.87-2.24,9.9-4.57,15.66-5.03.4-.03.81-.05,1.21-.05Z"/>
    </g>
    <g>
      <path class="st3" d="M1263.81,1879.63l13.2,19.54s11.38-13.63,22.75-12.72c11.38.91,20.11,9.53,30.67,9.53s16.74-3.16,19.43-13.17c2.68-10.01,0-22.3,0-22.3h-16.88s-3.16,14.02-10.01,13.2c-6.86-.82-12.38-8.61-22.95-9.27-10.57-.66-20.95,1.04-36.2,15.19Z"/>
      <path d="M1276.9,1901.38l-14.83-21.95.84-.78c14.88-13.8,25.3-15.66,33.53-15.66,1.15,0,2.35.04,3.66.12,6.33.4,10.88,3.18,14.9,5.63,2.93,1.79,5.45,3.33,8.13,3.65.14.02.28.03.42.03,4.4,0,7.42-9.03,8.13-12.19l.23-1.04h19.02l.23,1.05c.11.52,2.72,12.72-.01,22.93-2.66,9.92-8.86,14.16-20.71,14.16-5.73,0-10.96-2.41-16.02-4.74-4.66-2.15-9.47-4.37-14.76-4.79-10.58-.88-21.52,12.11-21.62,12.24l-1.14,1.36ZM1265.56,1879.83l11.6,17.17c3.27-3.5,12.87-12.68,22.71-11.88,5.76.46,10.79,2.78,15.66,5.03,5.02,2.31,9.76,4.5,14.9,4.5,10.7,0,15.79-3.42,18.14-12.18,2.12-7.92.74-17.48.18-20.62h-14.74c-.95,3.57-4.33,14.04-11.21,13.19-3.25-.39-6.14-2.16-9.2-4.02-3.94-2.4-8.01-4.89-13.67-5.24-1.25-.08-2.4-.12-3.5-.12-7.94,0-17.18,1.74-30.88,14.18Z"/>
    </g>
    <g>
      <path class="st3" d="M1351.58,1827.59h-2.28c-26.64,2.43-32.8,23.44-32.8,23.44,6.79,11.99,28.7,12.4,33.94,12.32,5.24.08,27.15-.33,33.95-12.32,0,0-6.17-21.02-32.81-23.44Z"/>
      <path d="M1351.37,1864.69h0c-.36,0-.67,0-.94,0-.23,0-.55,0-.9,0-8.06,0-27.53-1.27-34.18-13l-.28-.49.16-.54c.07-.22,6.74-21.92,33.96-24.4h2.4c27.35,2.48,34.02,24.18,34.09,24.4l.16.54-.28.49c-6.65,11.73-26.12,13-34.18,13ZM1350.43,1862.02c.3,0,.6,0,.94,0,5.83,0,25.12-.81,31.57-11.15-1.16-3.28-8.14-19.83-31.47-21.96h-2.16c-23.22,2.13-30.19,18.68-31.35,21.96,6.44,10.34,25.73,11.15,31.57,11.15.34,0,.64,0,.9,0Z"/>
    </g>
    <rect class="st6" x="1332.74" y="1793.95" width="36.6" height="3.69"/>
    <rect class="st6" x="1349.19" y="1777.94" width="3.69" height="36.6"/>
  </g>
  <g>
    <g>
      <path class="st3" d="M664.86,1764.12c-11.47-6.33-13.44-17-13.44-17h-1.47s-1.98,10.68-13.44,17c-11.47,6.33-33.21,19.77-33.21,36.37s28.11,44.68,47.27,44.88c.04,0,.08,0,.12,0,.04,0,.08,0,.12,0,19.16-.2,47.27-28.27,47.27-44.88s-21.75-30.05-33.21-36.37Z"/>
      <path d="M650.81,1846.7h-.25c-19.08-.2-48.6-28.27-48.6-46.21,0-12.5,11.41-25.13,33.9-37.54,10.79-5.95,12.76-15.98,12.78-16.08l.2-1.09h3.69l.2,1.09c.02.1,2.04,10.15,12.78,16.08,22.49,12.41,33.9,25.04,33.9,37.54,0,17.94-29.52,46.01-48.59,46.21h0ZM650.68,1749.45c-1.2,3.58-4.64,10.93-13.53,15.84-21.58,11.91-32.52,23.75-32.52,35.21,0,15.21,27.01,43.35,45.95,43.54h.15s.11,0,.11,0c18.93-.24,45.9-28.34,45.9-43.54,0-11.45-10.94-23.3-32.52-35.21-8.9-4.91-12.33-12.26-13.53-15.84Z"/>
    </g>
    <g>
      <circle class="st3" cx="649.94" cy="1743.97" r="11.67" transform="translate(-1196.6976 1975.8412) rotate(-76.7174)"/>
      <path class="st6" d="M649.94,1756.97c-7.17,0-13-5.83-13-13s5.83-13,13-13,13,5.83,13,13-5.83,13-13,13ZM649.94,1733.64c-5.7,0-10.33,4.64-10.33,10.33s4.64,10.33,10.33,10.33,10.33-4.64,10.33-10.33-4.64-10.33-10.33-10.33Z"/>
    </g>
    <g>
      <path class="st3" d="M737.8,1879.63l-13.2,19.54s-11.38-13.63-22.75-12.72c-11.38.91-20.11,9.53-30.67,9.53s-16.74-3.16-19.43-13.17c-2.68-10.01,0-22.3,0-22.3h16.88s3.16,14.02,10.01,13.2c6.86-.82,12.38-8.61,22.95-9.27,10.57-.66,20.95,1.04,36.2,15.19Z"/>
      <path d="M724.72,1901.38l-1.14-1.36c-.11-.13-11.03-13.09-21.62-12.24-5.29.42-10.1,2.64-14.76,4.79-5.06,2.33-10.29,4.74-16.02,4.74-11.86,0-18.05-4.23-20.71-14.16-2.74-10.21-.13-22.41-.01-22.93l.23-1.05h19.02l.24,1.04c.77,3.39,3.72,12.19,8.13,12.19h0c.14,0,.28,0,.42-.03,2.68-.32,5.2-1.86,8.13-3.65,4.02-2.45,8.57-5.23,14.9-5.63,1.31-.08,2.51-.12,3.66-.12,8.23,0,18.65,1.86,33.53,15.66l.84.78-14.83,21.95ZM702.95,1885.08c9.44,0,18.37,8.57,21.5,11.93l11.6-17.17c-13.7-12.44-22.94-14.18-30.88-14.18-1.1,0-2.24.04-3.5.12-5.67.35-9.74,2.84-13.68,5.24-3.06,1.87-5.95,3.63-9.2,4.02-.25.03-.49.04-.74.04h0c-6.39,0-9.56-9.79-10.48-13.23h-14.74c-.56,3.14-1.94,12.7.18,20.62,2.35,8.77,7.44,12.18,18.14,12.18,5.14,0,9.88-2.18,14.9-4.5,4.87-2.24,9.9-4.57,15.66-5.03.4-.03.81-.05,1.21-.05Z"/>
    </g>
    <g>
      <path class="st3" d="M563.31,1879.63l13.2,19.54s11.38-13.63,22.75-12.72c11.38.91,20.11,9.53,30.67,9.53s16.74-3.16,19.43-13.17c2.69-10.01,0-22.3,0-22.3h-16.88s-3.16,14.02-10.01,13.2c-6.86-.82-12.38-8.61-22.95-9.27-10.57-.66-20.95,1.04-36.2,15.19Z"/>
      <path d="M576.4,1901.38l-14.83-21.95.84-.78c14.88-13.8,25.3-15.66,33.53-15.66,1.15,0,2.35.04,3.66.12,6.33.4,10.88,3.18,14.9,5.63,2.93,1.79,5.45,3.33,8.13,3.65.14.02.28.03.42.03,4.4,0,7.42-9.03,8.13-12.19l.23-1.04h19.02l.23,1.05c.11.52,2.72,12.72-.01,22.93-2.66,9.92-8.86,14.16-20.71,14.16-5.73,0-10.96-2.41-16.02-4.74-4.66-2.15-9.47-4.37-14.76-4.79-10.58-.88-21.52,12.11-21.62,12.24l-1.14,1.36ZM565.06,1879.83l11.6,17.17c3.27-3.5,12.87-12.68,22.71-11.88,5.76.46,10.79,2.78,15.66,5.03,5.02,2.31,9.76,4.5,14.9,4.5,10.7,0,15.79-3.42,18.14-12.18,2.12-7.92.74-17.48.18-20.62h-14.74c-.95,3.57-4.33,14.04-11.21,13.19-3.25-.39-6.14-2.16-9.2-4.02-3.94-2.4-8.01-4.89-13.67-5.24-1.25-.08-2.4-.12-3.5-.12-7.94,0-17.18,1.74-30.88,14.18Z"/>
    </g>
    <g>
      <path class="st3" d="M651.08,1827.59h-2.28c-26.64,2.43-32.8,23.44-32.8,23.44,6.79,11.99,28.7,12.4,33.94,12.32,5.24.08,27.15-.33,33.95-12.32,0,0-6.17-21.02-32.81-23.44Z"/>
      <path d="M650.87,1864.69h0c-.36,0-.67,0-.94,0-.23,0-.55,0-.9,0-8.06,0-27.53-1.27-34.18-13l-.28-.49.16-.54c.07-.22,6.74-21.92,33.96-24.4h2.4c27.35,2.48,34.02,24.18,34.09,24.4l.16.54-.28.49c-6.65,11.73-26.12,13-34.18,13ZM649.92,1862.02c.3,0,.6,0,.94,0,5.83,0,25.12-.81,31.57-11.15-1.16-3.28-8.14-19.83-31.47-21.96h-2.16c-23.22,2.13-30.19,18.68-31.35,21.96,6.44,10.34,25.73,11.15,31.57,11.15.34,0,.64,0,.9,0Z"/>
    </g>
    <rect class="st6" x="632.24" y="1793.95" width="36.6" height="3.69"/>
    <rect class="st6" x="648.69" y="1777.94" width="3.69" height="36.6"/>
  </g>
  <g>
    <path d="M664.24,131.9c-11.47-6.33-13.44-17-13.44-17h-1.47s-1.98,10.68-13.44,17c-11.47,6.33-33.21,19.77-33.21,36.37s28.11,44.68,47.27,44.88c.04,0,.08,0,.12,0,.04,0,.08,0,.12,0,19.16-.2,47.27-28.27,47.27-44.88s-21.75-30.05-33.21-36.37Z"/>
    <circle cx="649.33" cy="111.75" r="11.67"/>
    <g>
      <path d="M737.19,247.41l-13.2,19.54s-11.38-13.63-22.75-12.72-20.11,9.53-30.67,9.53-16.74-3.16-19.43-13.17c-2.68-10.01,0-22.3,0-22.3h16.88s3.16,14.02,10.01,13.2c6.86-.82,12.38-8.61,22.95-9.27,10.57-.66,20.95,1.04,36.2,15.19Z"/>
      <path d="M724.1,269.17l-1.14-1.36c-.11-.13-11.04-13.05-21.62-12.24-5.29.42-10.1,2.64-14.76,4.79-5.06,2.33-10.29,4.74-16.02,4.74-11.86,0-18.05-4.23-20.71-14.16-2.74-10.21-.13-22.41-.01-22.93l.23-1.05h19.02l.23,1.04c.77,3.39,3.72,12.19,8.13,12.19h0c.14,0,.28,0,.42-.03,2.68-.32,5.2-1.86,8.13-3.65,4.02-2.45,8.57-5.23,14.9-5.63,1.31-.08,2.51-.12,3.66-.12,8.23,0,18.65,1.86,33.53,15.66l.84.78-14.83,21.96ZM702.34,252.86c9.44,0,18.37,8.57,21.5,11.93l11.6-17.17c-13.7-12.44-22.94-14.18-30.88-14.18-1.1,0-2.24.04-3.49.12-5.67.35-9.74,2.84-13.68,5.24-3.06,1.87-5.95,3.63-9.2,4.02-.25.03-.49.04-.74.04h0c-6.39,0-9.56-9.79-10.48-13.23h-14.74c-.56,3.14-1.94,12.7.19,20.62,2.35,8.77,7.44,12.18,18.14,12.18,5.14,0,9.88-2.19,14.9-4.5,4.87-2.24,9.9-4.57,15.66-5.03.4-.03.81-.05,1.21-.05Z"/>
    </g>
    <g>
      <path d="M562.7,247.41l13.2,19.54s11.38-13.63,22.75-12.72c11.38.91,20.11,9.53,30.67,9.53s16.74-3.16,19.43-13.17c2.68-10.01,0-22.3,0-22.3h-16.88s-3.16,14.02-10.01,13.2c-6.86-.82-12.38-8.61-22.95-9.27-10.57-.66-20.95,1.04-36.2,15.19Z"/>
      <path d="M575.78,269.17l-14.83-21.96.84-.78c14.88-13.8,25.3-15.66,33.53-15.66,1.15,0,2.35.04,3.66.12,6.33.4,10.88,3.18,14.9,5.63,2.93,1.79,5.45,3.33,8.13,3.65,4.71.57,7.76-8.67,8.55-12.17l.24-1.04h19.02s.23,1.05.23,1.05c.11.51,2.72,12.72-.02,22.93-2.66,9.92-8.86,14.16-20.71,14.16-5.73,0-10.96-2.41-16.02-4.74-4.66-2.15-9.47-4.37-14.76-4.79-10.59-.83-21.52,12.12-21.62,12.24l-1.14,1.36ZM564.45,247.62l11.6,17.17c3.27-3.5,12.89-12.67,22.71-11.88,5.76.46,10.79,2.78,15.66,5.03,5.02,2.31,9.76,4.5,14.9,4.5,10.7,0,15.79-3.42,18.14-12.18,2.13-7.93.74-17.49.19-20.62h-14.74c-.95,3.57-4.38,13.99-11.21,13.19-3.25-.39-6.14-2.15-9.2-4.02-3.94-2.4-8.01-4.89-13.68-5.24-1.25-.08-2.4-.12-3.49-.12-7.94,0-17.18,1.74-30.88,14.18Z"/>
    </g>
    <rect class="st3" x="631.62" y="161.74" width="36.6" height="3.69"/>
    <rect class="st3" x="648.08" y="145.73" width="3.69" height="36.6"/>
    <path d="M650.47,195.38h-2.28c-26.64,2.43-32.8,23.44-32.8,23.44,6.79,11.99,28.7,12.4,33.94,12.32,5.24.08,27.15-.33,33.95-12.32,0,0-6.17-21.02-32.81-23.44Z"/>
    <path class="st3" d="M648.06,212.6c-12.55.45-26.39,4.03-32.53,5.79-.1.27-.14.43-.14.43.16.29.35.57.53.84,6.08-1.75,19.79-5.3,32.19-5.74,12.22-.44,27.61,3.44,34.8,5.49.12-.2.25-.39.37-.59,0,0-.08-.28-.26-.75-7.38-2.08-22.74-5.89-34.96-5.47Z"/>
  </g>
  <g>
    <path d="M1363.75,127.84c-11.47-6.33-13.44-17-13.44-17h-1.47s-1.98,10.68-13.44,17c-11.47,6.33-33.21,19.77-33.21,36.37s28.11,44.68,47.27,44.88c.04,0,.08,0,.12,0,.04,0,.08,0,.12,0,19.16-.2,47.27-28.27,47.27-44.88s-21.75-30.05-33.21-36.37Z"/>
    <circle cx="1348.83" cy="107.69" r="11.67" transform="translate(918.4032 1390.5307) rotate(-76.0168)"/>
    <g>
      <path d="M1436.69,243.35l-13.2,19.54s-11.38-13.63-22.75-12.72c-11.38.91-20.11,9.53-30.67,9.53s-16.74-3.16-19.43-13.17c-2.68-10.01,0-22.3,0-22.3h16.88s3.16,14.02,10.01,13.2c6.86-.82,12.38-8.61,22.95-9.27,10.57-.66,20.95,1.04,36.2,15.19Z"/>
      <path d="M1423.61,265.11l-1.14-1.36c-.11-.13-11.04-13.05-21.62-12.24-5.29.42-10.1,2.64-14.76,4.79-5.06,2.33-10.29,4.74-16.02,4.74-11.86,0-18.05-4.23-20.71-14.16-2.74-10.21-.13-22.41-.02-22.93l.23-1.05h19.02l.23,1.04c.77,3.39,3.72,12.19,8.13,12.19h0c.14,0,.28,0,.42-.03,2.68-.32,5.2-1.86,8.13-3.65,4.02-2.45,8.57-5.23,14.9-5.63,1.31-.08,2.51-.12,3.66-.12,8.23,0,18.65,1.86,33.53,15.66l.84.78-14.83,21.96ZM1401.84,248.8c9.44,0,18.37,8.57,21.5,11.93l11.6-17.17c-13.7-12.44-22.94-14.18-30.88-14.18-1.1,0-2.24.04-3.49.12-5.67.35-9.74,2.84-13.68,5.24-3.06,1.87-5.95,3.63-9.2,4.02-.25.03-.49.04-.73.04h0c-6.39,0-9.56-9.79-10.48-13.23h-14.74c-.56,3.14-1.94,12.7.19,20.62,2.35,8.77,7.44,12.18,18.14,12.18,5.14,0,9.88-2.19,14.9-4.5,4.87-2.24,9.9-4.57,15.66-5.03.4-.03.81-.05,1.21-.05Z"/>
    </g>
    <g>
      <path d="M1262.2,243.35l13.2,19.54s11.38-13.63,22.75-12.72c11.38.91,20.11,9.53,30.67,9.53s16.74-3.16,19.43-13.17c2.68-10.01,0-22.3,0-22.3h-16.88s-3.16,14.02-10.01,13.2c-6.86-.82-12.38-8.61-22.95-9.27-10.57-.66-20.95,1.04-36.2,15.19Z"/>
      <path d="M1275.29,265.11l-14.83-21.96.84-.78c14.88-13.8,25.3-15.66,33.53-15.66,1.15,0,2.35.04,3.66.12,6.33.4,10.88,3.18,14.9,5.63,2.93,1.79,5.45,3.33,8.13,3.65,4.71.57,7.76-8.67,8.55-12.17l.23-1.04h19.02s.23,1.05.23,1.05c.11.51,2.72,12.72-.01,22.93-2.66,9.92-8.86,14.16-20.71,14.16-5.73,0-10.96-2.41-16.02-4.74-4.66-2.15-9.47-4.37-14.76-4.79-10.59-.83-21.52,12.12-21.62,12.24l-1.14,1.36ZM1263.95,243.56l11.6,17.17c3.27-3.5,12.89-12.67,22.71-11.88,5.76.46,10.79,2.78,15.66,5.03,5.02,2.31,9.76,4.5,14.9,4.5,10.7,0,15.79-3.42,18.14-12.18,2.13-7.93.74-17.49.19-20.62h-14.74c-.95,3.57-4.38,13.99-11.21,13.19-3.25-.39-6.14-2.15-9.2-4.02-3.94-2.4-8.01-4.89-13.68-5.24-1.25-.08-2.4-.12-3.49-.12-7.94,0-17.18,1.74-30.88,14.18Z"/>
    </g>
    <rect class="st3" x="1331.13" y="157.68" width="36.6" height="3.69"/>
    <rect class="st3" x="1347.58" y="141.67" width="3.69" height="36.6"/>
    <path d="M1349.97,191.32h-2.28c-26.64,2.43-32.8,23.44-32.8,23.44,6.79,11.99,28.7,12.4,33.94,12.32,5.24.08,27.15-.33,33.95-12.32,0,0-6.17-21.02-32.81-23.44Z"/>
    <path class="st3" d="M1347.56,208.53c-12.55.45-26.39,4.03-32.53,5.79-.1.27-.14.43-.14.43.16.29.35.57.53.84,6.08-1.75,19.79-5.3,32.19-5.74,12.22-.44,27.61,3.44,34.8,5.49.12-.2.25-.39.37-.59,0,0-.08-.28-.26-.75-7.38-2.08-22.74-5.89-34.96-5.47Z"/>
  </g>
  <g>
    <g>
      <g>
        <path class="st3" d="M1115.13,1832.52l18.53-16.2-.16-24.85s3.14-42.32-18.36-41.46h-.81c-21.5-.86-18.36,41.46-18.36,41.46l-.16,24.85,18.53,16.2v.7s.4-.35.4-.35l.4.35v-.7Z"/>
        <path class="st6" d="M1116.45,1836.09l-1.72-1.51-1.73,1.51.03-2.99-18.53-16.2.16-25.44c-.08-1-1.89-27.12,8.23-38.03,3.07-3.3,6.88-4.9,11.47-4.71h.75c.18,0,.41-.01.64-.01,4.24,0,7.86,1.59,10.77,4.73,10.13,10.9,8.31,37.03,8.23,38.13l.17,25.34-18.53,16.2.03,2.99ZM1097.1,1815.74l17.63,15.41h0s17.63-15.41,17.63-15.41l-.16-24.26c.02-.36,1.82-26.21-7.55-36.29-2.57-2.77-5.63-4.03-9.47-3.89h-.86c-.25,0-.45-.01-.64-.01-3.54,0-6.45,1.28-8.89,3.9-9.36,10.08-7.57,35.93-7.55,36.19l-.15,24.36Z"/>
      </g>
      <rect x="1112.18" y="1713.03" width="4.73" height="36.97"/>
      <rect x="1101.33" y="1722.67" width="26.44" height="4.97"/>
      <g>
        <path class="st3" d="M1061.36,1857.95s-67.43-48.34-22.71-85.45c44.72-37.11,75.69,54.48,75.69,65.88v19.57h-52.97Z"/>
        <path class="st6" d="M1115.62,1859.24h-54.68l-.34-.24c-1.53-1.1-37.52-27.22-38.55-56.35-.41-11.64,4.89-22.12,15.76-31.14,7.27-6.04,14.66-9.1,21.97-9.1,33.96,0,55.83,66.15,55.83,75.97v20.86ZM1061.78,1856.66h51.26v-18.28c0-9.14-21.56-73.39-53.25-73.39-6.69,0-13.52,2.86-20.32,8.5-10.22,8.48-15.21,18.26-14.83,29.06.93,26.43,33.49,51.39,37.14,54.1Z"/>
      </g>
      <g>
        <path class="st3" d="M1167.31,1857.95s67.43-48.34,22.71-85.45c-44.72-37.11-75.69,54.48-75.69,65.88v19.57h52.97Z"/>
        <path class="st6" d="M1167.72,1859.24h-54.68v-20.86c0-9.82,21.87-75.97,55.83-75.97,7.3,0,14.69,3.06,21.97,9.1,10.87,9.02,16.18,19.5,15.76,31.14-1.03,29.13-37.02,55.25-38.55,56.35l-.34.24ZM1115.62,1856.66h51.26c3.65-2.71,36.21-27.67,37.14-54.1.38-10.8-4.61-20.58-14.83-29.06-6.8-5.64-13.63-8.5-20.32-8.5-31.69,0-53.25,64.25-53.25,73.39v18.28Z"/>
      </g>
    </g>
    <g>
      <path class="st3" d="M1173.84,1859.46s1.21-2.16,3.54-9.57c0,0-23.8-12.85-61.14-15.01s-64,16.51-64,16.51c2.41,7.42,2.9,8.07,2.9,8.07,12.54,30.93-6.69,15.05-3.34,35.11,1.72,10.31,33.88,15.32,65.21,15.04,29.65-.27,58.55-5.28,60.18-15.04,3.34-20.06-15.88-4.18-3.34-35.11Z"/>
      <path d="M1114.5,1910.94h0c-30.52,0-62.15-5-64.01-16.16-1.57-9.39,1.73-11.83,4.38-13.79,2.99-2.21,5.82-4.3-.93-20.98-.6-1.14-1.91-5.02-2.95-8.23l-.3-.94.81-.57c.24-.17,24.57-16.92,58.74-16.92,2.03,0,4.08.06,6.1.18,37.2,2.15,61.45,15.03,61.69,15.16l.97.52-.33,1.05c-2.13,6.77-3.35,9.26-3.6,9.74-6.75,16.67-3.92,18.76-.93,20.97,2.65,1.96,5.94,4.39,4.38,13.79-1.92,11.53-34.32,15.9-61.48,16.15-.84,0-1.67.01-2.51.01ZM1053.83,1851.93c1.91,5.82,2.43,6.79,2.45,6.83l.1.14v.05c7.03,17.35,4.59,20.84.06,24.18-2.38,1.76-4.63,3.42-3.33,11.21,1.34,8.07,27.16,13.93,61.38,13.93h0c.83,0,1.66,0,2.49-.01,32.82-.3,57.58-6.15,58.88-13.92,1.3-7.79-.95-9.45-3.33-11.21-4.53-3.35-6.97-6.84.07-24.18l.07-.15s1.08-1.99,3.09-8.25c-4.84-2.37-27.2-12.48-59.6-14.35-1.97-.11-3.97-.17-5.95-.17-29.87,0-51.95,13.06-56.39,15.9Z"/>
    </g>
    <path d="M1114.38,1872.53c37.25-.35,54.88,10.27,63,13.81-.12-1.23-.38-2.22-.75-3.03-9.32-3.62-27.41-13.65-62.28-13.29-37.18.37-54.78,12.51-63.07,17.54-.01.86.04,1.81.16,2.89,7.09-4.78,23.9-17.55,62.93-17.93Z"/>
    <path d="M1114.35,1852.45c-28.88.28-45.94,10.14-56.01,14.11.24.9.42,1.72.56,2.49,9.57-3.86,26.32-13.81,55.47-14.09,28.98-.31,46.08,8.52,56.08,11.36.2-.74.44-1.54.71-2.37-10.4-2.96-27.79-11.77-56.81-11.49Z"/>
  </g>
  <g>
    <g>
      <path d="M1117.28,199.47l18.53-16.2-.16-24.85s3.14-42.32-18.36-41.46h-.81c-21.5-.86-18.36,41.46-18.36,41.46l-.16,24.85,18.53,16.2v.7s.4-.35.4-.35l.4.35v-.7Z"/>
      <path d="M1118.65,203.13l-1.76-1.54-1.77,1.54.03-3.06-18.53-16.2.16-25.46c-.08-1-1.9-27.14,8.24-38.06,3.08-3.32,6.92-4.92,11.5-4.73h.75c.18,0,.41-.01.64-.01,4.25,0,7.89,1.6,10.81,4.74,10.14,10.92,8.32,37.06,8.24,38.17l.17,25.35-18.53,16.2.03,3.06ZM1099.3,182.67l17.59,15.38h0s17.59-15.38,17.59-15.38l-.16-24.24c.02-.37,1.81-26.2-7.54-36.26-2.56-2.76-5.62-4.02-9.44-3.87h-.86c-.25,0-.45-.01-.64-.01-3.53,0-6.43,1.27-8.85,3.89-9.35,10.08-7.55,35.89-7.53,36.15l-.15,24.35Z"/>
    </g>
    <rect x="1114.33" y="79.97" width="4.73" height="36.97"/>
    <rect x="1103.48" y="89.62" width="26.44" height="4.97"/>
    <path d="M1063.51,224.9s-67.43-48.34-22.71-85.45c44.72-37.11,75.69,54.48,75.69,65.88v19.57h-52.97Z"/>
    <path d="M1117.81,226.23h-54.74l-.35-.25c-1.53-1.1-37.53-27.23-38.56-56.38-.41-11.66,4.9-22.15,15.78-31.18,7.28-6.04,14.68-9.1,21.99-9.1,33.99,0,55.88,66.19,55.88,76.01v20.9ZM1063.94,223.56h51.2v-18.24c0-9.13-21.54-73.34-53.21-73.34-6.68,0-13.5,2.86-20.29,8.49-10.21,8.47-15.2,18.24-14.82,29.03.93,26.39,33.42,51.31,37.11,54.06Z"/>
    <path d="M1169.46,224.9s67.43-48.34,22.71-85.45c-44.72-37.11-75.69,54.48-75.69,65.88v19.57h52.97Z"/>
    <path d="M1169.88,226.23h-54.74v-20.9c0-9.82,21.89-76.01,55.88-76.01,7.31,0,14.71,3.06,21.99,9.1,10.88,9.03,16.19,19.52,15.78,31.18-1.03,29.15-37.03,55.28-38.57,56.38l-.35.25ZM1117.81,223.56h51.2c3.7-2.75,36.18-27.68,37.11-54.06.38-10.79-4.6-20.55-14.82-29.03-6.79-5.63-13.62-8.49-20.29-8.49-31.67,0-53.21,64.21-53.21,73.34v18.24Z"/>
    <path d="M1175.99,226.4s1.21-2.16,3.54-9.57c0,0-23.8-12.85-61.14-15.01-37.33-2.16-64,16.51-64,16.51,2.41,7.42,2.9,8.07,2.9,8.07,12.54,30.93-6.69,15.05-3.34,35.11,1.72,10.31,33.88,15.32,65.21,15.04,29.65-.27,58.55-5.28,60.18-15.04,3.34-20.06-15.88-4.18-3.34-35.11Z"/>
    <path class="st3" d="M1116.87,219.4c-29.33.28-46.65,10.14-56.88,14.11.24.9.42,1.72.57,2.49,9.72-3.86,26.73-13.81,56.33-14.09,29.43-.31,46.8,8.52,56.95,11.36.2-.74.45-1.54.72-2.37-10.56-2.96-28.22-11.77-57.69-11.49Z"/>
    <path class="st3" d="M1053.62,257.41c7.09-4.78,23.89-17.55,62.92-17.93,36.51-.35,54.15,9.85,62.49,13.59-.88-2.18-2.44-3.23-3.91-4.32-10.14-4.32-27.84-12.09-58.61-11.77-36.58.36-54.2,12.12-62.65,17.29-.17.7-.28,1.5-.31,2.43.02.24.03.46.06.72Z"/>
    <path class="st3" d="M1166.2,215.67l-40.46-9.2.08-1.14c.73-10.86,21.3-65.35,45.21-65.35,4.76,0,9.87,2.24,15.18,6.65,8.31,6.9,12.21,14.28,11.93,22.56-.73,21.24-28.29,43.61-31.43,46.09l-.5.4ZM1128.61,204.39l36.94,8.4c13.6-10.87,29.41-28.65,29.92-43.69.25-7.4-3.34-14.08-10.97-20.42-4.82-4-9.36-6.03-13.48-6.03-21.25,0-40.56,49.37-42.42,61.74Z"/>
    <path class="st3" d="M1066.76,215.67l-.5-.4c-3.14-2.48-30.71-24.85-31.43-46.09-.28-8.28,3.62-15.66,11.93-22.56,5.32-4.41,10.42-6.65,15.18-6.65,23.91,0,44.48,54.49,45.21,65.35l.08,1.14-40.46,9.2ZM1061.94,142.65c-4.12,0-8.66,2.03-13.48,6.03-7.63,6.33-11.22,13.01-10.97,20.42.51,15.03,16.32,32.82,29.92,43.69l36.94-8.4c-1.86-12.37-21.17-61.74-42.42-61.74Z"/>
  </g>
  <path class="st3" d="M179.71,1969.78l-2.47,8.15h-5.42l9.22-28.76h6.7l9.34,28.76h-5.63l-2.6-8.15h-9.13ZM187.94,1965.81l-2.26-7.08c-.55-1.75-1.02-3.71-1.45-5.38h-.09c-.43,1.66-.85,3.67-1.37,5.38l-2.22,7.08h7.38Z"/>
  <path class="st3" d="M408.27,1949.55c1.66-.34,4.69-.6,7.64-.6,3.88,0,6.27.47,8.23,1.83,1.79,1.07,2.99,2.94,2.99,5.38,0,2.64-1.66,5.08-4.78,6.23v.09c3.03.77,5.8,3.16,5.8,7.12,0,2.56-1.11,4.57-2.77,5.93-2.05,1.79-5.42,2.69-10.67,2.69-2.9,0-5.12-.21-6.44-.38v-28.29ZM413.48,1960.9h2.69c3.63,0,5.67-1.71,5.67-4.14,0-2.69-2.05-3.92-5.38-3.92-1.54,0-2.43.08-2.99.21v7.85ZM413.48,1974.13c.68.08,1.58.13,2.77.13,3.37,0,6.36-1.28,6.36-4.82,0-3.33-2.9-4.69-6.53-4.69h-2.6v9.39Z"/>
  <path class="st3" d="M661.67,1977.07c-1.24.64-3.97,1.28-7.42,1.28-9.13,0-14.68-5.72-14.68-14.46,0-9.47,6.57-15.19,15.36-15.19,3.46,0,5.93.73,7,1.28l-1.15,4.18c-1.37-.6-3.24-1.11-5.63-1.11-5.85,0-10.07,3.67-10.07,10.58,0,6.31,3.71,10.37,10.03,10.37,2.13,0,4.35-.43,5.72-1.07l.85,4.14Z"/>
  <path class="st3" d="M872.08,1949.55c2.3-.38,5.25-.6,8.36-.6,5.38,0,9.09,1.11,11.73,3.33,2.77,2.26,4.48,5.67,4.48,10.58s-1.75,8.96-4.48,11.43c-2.86,2.6-7.42,3.92-13.01,3.92-3.07,0-5.38-.17-7.08-.38v-28.29ZM877.33,1973.92c.73.13,1.83.13,2.9.13,6.83.04,10.88-3.71,10.88-11.01.04-6.36-3.63-9.98-10.2-9.98-1.66,0-2.86.13-3.58.3v20.56Z"/>
  <path class="st3" d="M1124.79,1965.17h-10.84v8.45h12.12v4.31h-17.36v-28.76h16.72v4.31h-11.48v7.42h10.84v4.27Z"/>
  <path class="st3" d="M1341.88,1949.17h16.6v4.31h-11.35v7.94h10.58v4.31h-10.58v12.2h-5.25v-28.76Z"/>
  <path class="st3" d="M1594.62,1976.6c-1.83.68-5.42,1.62-9.26,1.62-4.86,0-8.53-1.24-11.26-3.84-2.56-2.43-4.05-6.23-4.01-10.58,0-9.09,6.49-14.93,16-14.93,3.54,0,6.32.73,7.64,1.36l-1.15,4.22c-1.58-.68-3.5-1.24-6.53-1.24-6.14,0-10.45,3.63-10.45,10.32s4.01,10.41,9.98,10.41c1.88,0,3.29-.26,3.97-.6v-7.17h-5.08v-4.14h10.15v14.55Z"/>
  <path class="st3" d="M1809.74,1949.17v11.52h12.16v-11.52h5.25v28.76h-5.25v-12.67h-12.16v12.67h-5.25v-28.76h5.25Z"/>
  <path class="st3" d="M28.53,1803.65h-.1l-5.88,3.18-.88-3.49,7.39-3.96h3.9v33.84h-4.43v-29.57Z"/>
  <path class="st3" d="M18.59,1599.23v-2.81l3.59-3.49c8.64-8.23,12.55-12.6,12.6-17.7,0-3.44-1.67-6.61-6.72-6.61-3.07,0-5.62,1.56-7.18,2.86l-1.46-3.23c2.34-1.98,5.68-3.44,9.58-3.44,7.29,0,10.36,5,10.36,9.84,0,6.25-4.53,11.3-11.66,18.17l-2.71,2.5v.1h15.2v3.8h-21.61Z"/>
  <path class="st3" d="M19.68,1359.99c1.3.83,4.32,2.13,7.5,2.13,5.88,0,7.71-3.75,7.65-6.56-.05-4.74-4.32-6.77-8.75-6.77h-2.55v-3.44h2.55c3.33,0,7.55-1.72,7.55-5.73,0-2.71-1.72-5.1-5.94-5.1-2.71,0-5.31,1.2-6.77,2.24l-1.2-3.33c1.77-1.3,5.21-2.6,8.85-2.6,6.66,0,9.68,3.96,9.68,8.07,0,3.49-2.08,6.46-6.25,7.97v.1c4.16.83,7.55,3.96,7.55,8.7,0,5.41-4.22,10.15-12.34,10.15-3.8,0-7.13-1.2-8.8-2.29l1.25-3.54Z"/>
  <path class="st3" d="M32.75,1131.26v-9.21h-15.72v-3.02l15.1-21.61h4.95v21.03h4.74v3.59h-4.74v9.21h-4.32ZM32.75,1118.45v-11.3c0-1.77.05-3.54.16-5.31h-.16c-1.04,1.98-1.87,3.44-2.81,5l-8.28,11.51v.1h11.09Z"/>
  <path class="st3" d="M38.79,867.28h-12.91l-1.3,8.69c.78-.1,1.51-.21,2.76-.21,2.6,0,5.21.57,7.29,1.82,2.65,1.51,4.84,4.43,4.84,8.69,0,6.61-5.26,11.56-12.6,11.56-3.7,0-6.82-1.04-8.43-2.08l1.15-3.49c1.41.83,4.17,1.87,7.24,1.87,4.32,0,8.02-2.81,8.02-7.34-.05-4.37-2.97-7.5-9.74-7.5-1.93,0-3.44.21-4.69.36l2.19-16.24h16.19v3.85Z"/>
  <path class="st3" d="M37.9,632.67c-.94-.05-2.13,0-3.44.21-7.18,1.2-10.99,6.46-11.77,12.03h.16c1.61-2.14,4.43-3.9,8.17-3.9,5.99,0,10.2,4.32,10.2,10.93,0,6.2-4.22,11.92-11.25,11.92s-11.97-5.62-11.97-14.42c0-6.66,2.4-11.92,5.73-15.25,2.81-2.76,6.56-4.48,10.83-5,1.35-.21,2.5-.26,3.33-.26v3.75ZM36.6,652.19c0-4.84-2.76-7.76-6.98-7.76-2.76,0-5.31,1.72-6.56,4.16-.31.52-.52,1.2-.52,2.03.1,5.57,2.66,9.68,7.45,9.68,3.96,0,6.61-3.28,6.61-8.12Z"/>
  <path class="st3" d="M40.56,395.45v3.02l-14.73,30.82h-4.74l14.68-29.94v-.1h-16.56v-3.8h21.35Z"/>
  <path class="st3" d="M18.17,186.71c0-4.27,2.55-7.29,6.72-9.06l-.05-.16c-3.75-1.77-5.36-4.68-5.36-7.6,0-5.36,4.53-9.01,10.46-9.01,6.56,0,9.84,4.11,9.84,8.33,0,2.86-1.41,5.93-5.57,7.91v.16c4.22,1.67,6.82,4.63,6.82,8.75,0,5.88-5.05,9.84-11.51,9.84-7.08,0-11.35-4.22-11.35-9.16ZM36.39,186.5c0-4.11-2.86-6.09-7.45-7.39-3.96,1.15-6.09,3.75-6.09,6.98-.16,3.44,2.45,6.46,6.77,6.46s6.77-2.55,6.77-6.04ZM23.79,169.58c0,3.38,2.55,5.21,6.46,6.25,2.92-.99,5.15-3.07,5.15-6.14,0-2.71-1.61-5.52-5.73-5.52-3.8,0-5.88,2.5-5.88,5.42Z"/>
</svg>