<?xml version='1.0' encoding='utf-8'?>
<svg xmlns="http://www.w3.org/2000/svg" viewBox="0 0 96.0000 96.0000"><g transform="translate(-147.9886, 13.5700)"><path d="M218.03,56.86c-.76-2.04-2.48-3.57-5.09-3.95.06-.85.38-1.68.94-2.49,1.35-1.93,2-4.08,2.86-6.21,2.27-5.58,2.17-15.83.26-21.15-2.29-6.38-5.86-12.44-11.64-15.94l-5.39-3.27c-3.11-1.89-12.47-4.56-12.88-1.77l1.94,3.17c-8.79,5.57-19.81,15.05-13.75,23.94,1.12,1.65,3.74,2.55,5.51,2.1,1.94-.49,3.45-1.87,3.86-4.1l3.25-1.53,4.33-1.64c2.67,7.11-11.96,8.24-13.89,17.91-.43,2.14-.19,5.37-.06,7.64l1.65,3.79c-3.63-.86-6.43,3.02-5.66,6.19.41,1.7,1.36,3.18,2.33,4.86-.89.07-2.44.46-2.49,1.16-.05.74.27,1.99.7,2.42.43.43,1.81.21,2.57-.21h37.19c.94.4,2.16.4,2.94.17.65-.2,1.09-2.19.57-2.61l-2.01-1.62c1.87-2.01,2.86-4.44,1.96-6.85Z" fill="#2C2C30" stroke="#FFFFFF" stroke-width="1.8" stroke-linejoin="round" stroke-linecap="round" />
</g></svg>